<svg xmlns="http://www.w3.org/2000/svg" xmlns:xlink="http://www.w3.org/1999/xlink" viewBox="0 0 4500 3000"><defs><style>.cls-1{isolation:isolate;}.cls-2{fill:url(#linear-gradient);}.cls-3,.cls-30{opacity:0.5;}.cls-4{opacity:0.4;}.cls-5{fill:#54737a;}.cls-6{fill:#3f565c;}.cls-7{fill:#709aa3;}.cls-15,.cls-30,.cls-8{fill:#fff;}.cls-9{fill:#414042;}.cls-10,.cls-23{fill:#d1d3d4;}.cls-11{fill:#231f20;}.cls-12{fill:#cec4af;}.cls-13{fill:#f3f0eb;}.cls-14{fill:#fff200;}.cls-15{opacity:0.2;}.cls-16,.cls-20,.cls-23,.cls-33{mix-blend-mode:multiply;}.cls-17{fill:#6d6e71;}.cls-18{fill:#ed1c24;}.cls-19{fill:#e6e7e8;}.cls-20,.cls-31{fill:#58595b;}.cls-21,.cls-33{fill:#939598;}.cls-22{clip-path:url(#clip-path);}.cls-24{clip-path:url(#clip-path-2);}.cls-25{fill:#ffde17;}.cls-26{fill:#ffc300;}.cls-27{fill:#ffe545;}.cls-28{fill:#fff2a2;}.cls-29{fill:#be1e2d;}.cls-32{fill:#808285;}.cls-34{fill:#fbb040;}</style><linearGradient id="linear-gradient" x1="2250" y1="3000" x2="2250" gradientUnits="userSpaceOnUse"><stop offset="0" stop-color="#67dedc"/><stop offset="0.31" stop-color="#a1eae9"/><stop offset="0.63" stop-color="#d3f6f5"/><stop offset="0.87" stop-color="#f3fcfc"/><stop offset="1" stop-color="#fff"/></linearGradient><clipPath id="clip-path"><path d="M1297.79,2598.64H1216c-78.16,0-141.49-73.16-141.49-163.42s63.33-163.38,141.49-163.38h81.84c-78.16,0-141.49,73.17-141.49,163.38S1219.63,2598.64,1297.79,2598.64Z"/></clipPath><clipPath id="clip-path-2"><path d="M2539.45,2598.64h-81.83c-78.16,0-141.49-73.16-141.49-163.42s63.33-163.38,141.49-163.38h81.83c-78.16,0-141.49,73.17-141.49,163.38S2461.29,2598.64,2539.45,2598.64Z"/></clipPath></defs><g class="cls-1"><g id="Layer_2" data-name="Layer 2"><g id="BG"><rect class="cls-2" width="4500" height="3000"/></g><g id="town"><g class="cls-3"><g class="cls-4"><rect class="cls-5" x="2141.5" y="1895.39" width="2358.5" height="413.42" transform="translate(6641.5 4204.2) rotate(180)"/><rect class="cls-5" x="4132.98" y="1386.22" width="239.84" height="713.68" transform="translate(8505.8 3486.11) rotate(180)"/><rect class="cls-6" x="4229.25" y="1415.86" width="47.3" height="47.3" transform="translate(8505.8 2879.03) rotate(180)"/><rect class="cls-6" x="4159.29" y="1415.86" width="47.3" height="47.3" transform="translate(8365.89 2879.03) rotate(180)"/><rect class="cls-6" x="4299.2" y="1490.81" width="47.3" height="47.3" transform="translate(8645.71 3028.93) rotate(180)"/><rect class="cls-6" x="4159.29" y="1490.81" width="47.3" height="47.3" transform="translate(8365.89 3028.93) rotate(180)"/><rect class="cls-6" x="4299.2" y="1565.77" width="47.3" height="47.3" transform="translate(8645.71 3178.83) rotate(180)"/><rect class="cls-6" x="4229.25" y="1565.77" width="47.3" height="47.3" transform="translate(8505.8 3178.83) rotate(180)"/><rect class="cls-6" x="4299.2" y="1640.72" width="47.3" height="47.3" transform="translate(8645.71 3328.74) rotate(180)"/><rect class="cls-6" x="4159.29" y="1640.72" width="47.3" height="47.3" transform="translate(8365.89 3328.74) rotate(180)"/><rect class="cls-6" x="4229.25" y="1715.67" width="47.3" height="47.3" transform="translate(8505.8 3478.64) rotate(180)"/><rect class="cls-6" x="4159.29" y="1715.67" width="47.3" height="47.3" transform="translate(8365.89 3478.64) rotate(180)"/><rect class="cls-6" x="4299.2" y="1790.62" width="47.3" height="47.3" transform="translate(8645.71 3628.54) rotate(180)"/><rect class="cls-6" x="4229.25" y="1790.62" width="47.3" height="47.3" transform="translate(8505.8 3628.54) rotate(180)"/><rect class="cls-6" x="4229.25" y="1865.57" width="47.3" height="47.3" transform="translate(8505.8 3778.44) rotate(180)"/><rect class="cls-6" x="4159.29" y="1865.57" width="47.3" height="47.3" transform="translate(8365.89 3778.44) rotate(180)"/><rect class="cls-6" x="4299.2" y="1940.52" width="47.3" height="47.3" transform="translate(8645.71 3928.35) rotate(180)"/><rect class="cls-6" x="4229.25" y="1940.52" width="47.3" height="47.3" transform="translate(8505.8 3928.35) rotate(180)"/><rect class="cls-6" x="4159.29" y="1940.52" width="47.3" height="47.3" transform="translate(8365.89 3928.35) rotate(180)"/><rect class="cls-5" x="3834.11" y="1218.04" width="239.84" height="713.68" transform="translate(7908.06 3149.76) rotate(180)"/><rect class="cls-6" x="3930.38" y="1247.69" width="47.3" height="47.3" transform="translate(7908.06 2542.68) rotate(180)"/><rect class="cls-6" x="3860.43" y="1247.69" width="47.3" height="47.3" transform="translate(7768.15 2542.68) rotate(180)"/><rect class="cls-6" x="4000.33" y="1322.64" width="47.3" height="47.3" transform="translate(8047.97 2692.58) rotate(180)"/><rect class="cls-6" x="3860.43" y="1322.64" width="47.3" height="47.3" transform="translate(7768.15 2692.58) rotate(180)"/><rect class="cls-6" x="4000.33" y="1397.59" width="47.3" height="47.3" transform="translate(8047.97 2842.48) rotate(180)"/><rect class="cls-6" x="3930.38" y="1397.59" width="47.3" height="47.3" transform="translate(7908.06 2842.48) rotate(180)"/><rect class="cls-6" x="4000.33" y="1472.54" width="47.3" height="47.3" transform="translate(8047.97 2992.38) rotate(180)"/><rect class="cls-6" x="3860.43" y="1472.54" width="47.3" height="47.3" transform="translate(7768.15 2992.38) rotate(180)"/><rect class="cls-6" x="3930.38" y="1547.49" width="47.3" height="47.3" transform="translate(7908.06 3142.29) rotate(180)"/><rect class="cls-6" x="3860.43" y="1547.49" width="47.3" height="47.3" transform="translate(7768.15 3142.29) rotate(180)"/><rect class="cls-6" x="4000.33" y="1622.44" width="47.3" height="47.3" transform="translate(8047.97 3292.19) rotate(180)"/><rect class="cls-6" x="3930.38" y="1622.44" width="47.3" height="47.3" transform="translate(7908.06 3292.19) rotate(180)"/><rect class="cls-6" x="3930.38" y="1697.39" width="47.3" height="47.3" transform="translate(7908.06 3442.09) rotate(180)"/><rect class="cls-6" x="3860.43" y="1697.39" width="47.3" height="47.3" transform="translate(7768.15 3442.09) rotate(180)"/><rect class="cls-6" x="4000.33" y="1772.34" width="47.3" height="47.3" transform="translate(8047.97 3591.99) rotate(180)"/><rect class="cls-6" x="3930.38" y="1772.34" width="47.3" height="47.3" transform="translate(7908.06 3591.99) rotate(180)"/><rect class="cls-6" x="3860.43" y="1772.34" width="47.3" height="47.3" transform="translate(7768.15 3591.99) rotate(180)"/><rect class="cls-5" x="2704.47" y="1302.86" width="239.84" height="713.68" transform="translate(5648.78 3319.4) rotate(180)"/><rect class="cls-6" x="2800.74" y="1332.51" width="47.3" height="47.3" transform="translate(5648.78 2712.31) rotate(180)"/><rect class="cls-6" x="2730.79" y="1332.51" width="47.3" height="47.3" transform="translate(5508.88 2712.31) rotate(180)"/><rect class="cls-6" x="2870.7" y="1407.46" width="47.3" height="47.3" transform="translate(5788.69 2862.22) rotate(180)"/><rect class="cls-6" x="2730.79" y="1407.46" width="47.3" height="47.3" transform="translate(5508.88 2862.22) rotate(180)"/><rect class="cls-6" x="2870.7" y="1482.41" width="47.3" height="47.3" transform="translate(5788.69 3012.12) rotate(180)"/><rect class="cls-6" x="2800.74" y="1482.41" width="47.3" height="47.3" transform="translate(5648.78 3012.12) rotate(180)"/><rect class="cls-6" x="2870.7" y="1557.36" width="47.3" height="47.3" transform="translate(5788.69 3162.02) rotate(180)"/><rect class="cls-6" x="2730.79" y="1557.36" width="47.3" height="47.3" transform="translate(5508.88 3162.02) rotate(180)"/><rect class="cls-6" x="2800.74" y="1632.31" width="47.3" height="47.3" transform="translate(5648.78 3311.92) rotate(180)"/><rect class="cls-6" x="2730.79" y="1632.31" width="47.3" height="47.3" transform="translate(5508.88 3311.92) rotate(180)"/><rect class="cls-6" x="2870.7" y="1707.26" width="47.3" height="47.3" transform="translate(5788.69 3461.83) rotate(180)"/><rect class="cls-6" x="2800.74" y="1707.26" width="47.3" height="47.3" transform="translate(5648.78 3461.83) rotate(180)"/><rect class="cls-6" x="2800.74" y="1782.21" width="47.3" height="47.3" transform="translate(5648.78 3611.73) rotate(180)"/><rect class="cls-6" x="2730.79" y="1782.21" width="47.3" height="47.3" transform="translate(5508.88 3611.73) rotate(180)"/><rect class="cls-6" x="2870.7" y="1857.16" width="47.3" height="47.3" transform="translate(5788.69 3761.63) rotate(180)"/><rect class="cls-6" x="2800.74" y="1857.16" width="47.3" height="47.3" transform="translate(5648.78 3761.63) rotate(180)"/><rect class="cls-6" x="2730.79" y="1857.16" width="47.3" height="47.3" transform="translate(5508.88 3761.63) rotate(180)"/><path class="cls-5" d="M2352.19,1394.51v-36.4a93.6,93.6,0,0,1,93.61-93.6h0a93.6,93.6,0,0,1,93.61,93.6v36.4h26.31v660.38H2325.88V1394.51Z"/><rect class="cls-6" x="2422.15" y="1445.81" width="47.3" height="47.3" transform="translate(4891.6 2938.92) rotate(180)"/><path class="cls-6" d="M2399.5,1308.13h92.61a0,0,0,0,1,0,0v34.08a46.3,46.3,0,0,1-46.3,46.3h0a46.3,46.3,0,0,1-46.3-46.3v-34.08A0,0,0,0,1,2399.5,1308.13Z" transform="translate(4891.6 2696.64) rotate(180)"/><rect class="cls-6" x="2352.19" y="1445.81" width="47.3" height="47.3" transform="translate(4751.69 2938.92) rotate(180)"/><rect class="cls-6" x="2492.1" y="1520.76" width="47.3" height="47.3" transform="translate(5031.51 3088.82) rotate(180)"/><rect class="cls-6" x="2352.19" y="1520.76" width="47.3" height="47.3" transform="translate(4751.69 3088.82) rotate(180)"/><rect class="cls-6" x="2422.15" y="1595.71" width="47.3" height="47.3" transform="translate(4891.6 3238.72) rotate(180)"/><rect class="cls-6" x="2352.19" y="1595.71" width="47.3" height="47.3" transform="translate(4751.69 3238.72) rotate(180)"/><rect class="cls-6" x="2492.1" y="1670.66" width="47.3" height="47.3" transform="translate(5031.51 3388.63) rotate(180)"/><rect class="cls-6" x="2422.15" y="1670.66" width="47.3" height="47.3" transform="translate(4891.6 3388.63) rotate(180)"/><rect class="cls-6" x="2422.15" y="1745.61" width="47.3" height="47.3" transform="translate(4891.6 3538.53) rotate(180)"/><rect class="cls-6" x="2352.19" y="1745.61" width="47.3" height="47.3" transform="translate(4751.69 3538.53) rotate(180)"/><rect class="cls-6" x="2422.15" y="1820.56" width="47.3" height="47.3" transform="translate(4891.6 3688.43) rotate(180)"/><rect class="cls-6" x="2352.19" y="1820.56" width="47.3" height="47.3" transform="translate(4751.69 3688.43) rotate(180)"/><rect class="cls-6" x="2492.1" y="1895.52" width="47.3" height="47.3" transform="translate(5031.51 3838.33) rotate(180)"/><rect class="cls-6" x="2422.15" y="1895.52" width="47.3" height="47.3" transform="translate(4891.6 3838.33) rotate(180)"/><rect class="cls-6" x="2352.19" y="1895.52" width="47.3" height="47.3" transform="translate(4751.69 3838.33) rotate(180)"/><rect class="cls-5" x="3078.99" y="1474.92" width="239.84" height="459.18" transform="translate(6397.83 3409.02) rotate(180)"/><rect class="cls-6" x="3245.22" y="1549.87" width="47.3" height="47.3" transform="translate(6537.74 3147.04) rotate(180)"/><rect class="cls-6" x="3105.31" y="1549.87" width="47.3" height="47.3" transform="translate(6257.92 3147.04) rotate(180)"/><rect class="cls-6" x="3175.26" y="1624.82" width="47.3" height="47.3" transform="translate(6397.83 3296.94) rotate(180)"/><rect class="cls-6" x="3105.31" y="1624.82" width="47.3" height="47.3" transform="translate(6257.92 3296.94) rotate(180)"/><rect class="cls-6" x="3245.22" y="1699.77" width="47.3" height="47.3" transform="translate(6537.74 3446.85) rotate(180)"/><rect class="cls-6" x="3175.26" y="1699.77" width="47.3" height="47.3" transform="translate(6397.83 3446.85) rotate(180)"/><rect class="cls-6" x="3245.22" y="1774.72" width="47.3" height="47.3" transform="translate(6537.74 3596.75) rotate(180)"/><rect class="cls-6" x="3175.26" y="1774.72" width="47.3" height="47.3" transform="translate(6397.83 3596.75) rotate(180)"/><rect class="cls-6" x="3105.31" y="1774.72" width="47.3" height="47.3" transform="translate(6257.92 3596.75) rotate(180)"/><rect class="cls-5" x="3685.91" y="1660.56" width="239.84" height="459.18" transform="translate(7611.66 3780.3) rotate(180)"/><rect class="cls-6" x="3852.13" y="1735.51" width="47.3" height="47.3" transform="translate(7751.56 3518.32) rotate(180)"/><rect class="cls-6" x="3712.22" y="1735.51" width="47.3" height="47.3" transform="translate(7471.75 3518.32) rotate(180)"/><rect class="cls-6" x="3782.18" y="1810.46" width="47.3" height="47.3" transform="translate(7611.66 3668.22) rotate(180)"/><rect class="cls-6" x="3712.22" y="1810.46" width="47.3" height="47.3" transform="translate(7471.75 3668.22) rotate(180)"/><rect class="cls-6" x="3852.13" y="1885.41" width="47.3" height="47.3" transform="translate(7751.56 3818.13) rotate(180)"/><rect class="cls-6" x="3782.18" y="1885.41" width="47.3" height="47.3" transform="translate(7611.66 3818.13) rotate(180)"/><rect class="cls-6" x="3852.13" y="1960.36" width="47.3" height="47.3" transform="translate(7751.56 3968.03) rotate(180)"/><rect class="cls-6" x="3782.18" y="1960.36" width="47.3" height="47.3" transform="translate(7611.66 3968.03) rotate(180)"/><rect class="cls-6" x="3712.22" y="1960.36" width="47.3" height="47.3" transform="translate(7471.75 3968.03) rotate(180)"/><rect class="cls-5" x="2974.79" y="1776.61" width="239.84" height="459.18" transform="translate(6189.42 4012.4) rotate(180)"/><rect class="cls-6" x="3141.01" y="1851.56" width="47.3" height="47.3" transform="translate(6329.33 3750.43) rotate(180)"/><rect class="cls-6" x="3001.1" y="1851.56" width="47.3" height="47.3" transform="translate(6049.51 3750.43) rotate(180)"/><rect class="cls-6" x="3071.06" y="1926.51" width="47.3" height="47.3" transform="translate(6189.42 3900.33) rotate(180)"/><rect class="cls-6" x="3001.1" y="1926.51" width="47.3" height="47.3" transform="translate(6049.51 3900.33) rotate(180)"/><rect class="cls-6" x="3141.01" y="2001.47" width="47.3" height="47.3" transform="translate(6329.33 4050.23) rotate(180)"/><rect class="cls-6" x="3071.06" y="2001.47" width="47.3" height="47.3" transform="translate(6189.42 4050.23) rotate(180)"/><rect class="cls-6" x="3141.01" y="2076.42" width="47.3" height="47.3" transform="translate(6329.33 4200.14) rotate(180)"/><rect class="cls-6" x="3071.06" y="2076.42" width="47.3" height="47.3" transform="translate(6189.42 4200.14) rotate(180)"/><rect class="cls-6" x="3001.1" y="2076.42" width="47.3" height="47.3" transform="translate(6049.51 4200.14) rotate(180)"/><polygon class="cls-5" points="3747.86 1960.36 3987.7 1960.36 3987.7 1351.28 3747.86 1501.18 3747.86 1960.36"/><rect class="cls-6" x="3914.08" y="1576.14" width="47.3" height="47.3" transform="translate(7875.47 3199.57) rotate(180)"/><rect class="cls-6" x="3914.08" y="1501.18" width="47.3" height="47.3" transform="translate(7875.47 3049.67) rotate(180)"/><rect class="cls-6" x="3844.13" y="1576.14" width="47.3" height="47.3" transform="translate(7735.56 3199.57) rotate(180)"/><rect class="cls-6" x="3774.18" y="1576.14" width="47.3" height="47.3" transform="translate(7595.65 3199.57) rotate(180)"/><rect class="cls-6" x="3914.08" y="1651.09" width="47.3" height="47.3" transform="translate(7875.47 3349.48) rotate(180)"/><rect class="cls-6" x="3844.13" y="1651.09" width="47.3" height="47.3" transform="translate(7735.56 3349.48) rotate(180)"/><rect class="cls-6" x="3774.18" y="1651.09" width="47.3" height="47.3" transform="translate(7595.65 3349.48) rotate(180)"/><rect class="cls-6" x="3914.08" y="1726.04" width="47.3" height="47.3" transform="translate(7875.47 3499.38) rotate(180)"/><rect class="cls-6" x="3844.13" y="1726.04" width="47.3" height="47.3" transform="translate(7735.56 3499.38) rotate(180)"/><rect class="cls-6" x="3774.18" y="1726.04" width="47.3" height="47.3" transform="translate(7595.65 3499.38) rotate(180)"/><rect class="cls-6" x="3914.08" y="1800.99" width="47.3" height="47.3" transform="translate(7875.47 3649.28) rotate(180)"/><rect class="cls-6" x="3844.13" y="1800.99" width="47.3" height="47.3" transform="translate(7735.56 3649.28) rotate(180)"/><rect class="cls-6" x="3774.18" y="1800.99" width="47.3" height="47.3" transform="translate(7595.65 3649.28) rotate(180)"/><rect class="cls-7" x="4207.5" y="1571.24" width="239.84" height="746.11" transform="translate(8654.83 3888.59) rotate(180)"/><rect class="cls-5" x="4303.77" y="1600.89" width="47.3" height="47.3" transform="translate(8654.83 3249.08) rotate(180)"/><rect class="cls-5" x="4233.81" y="1600.89" width="47.3" height="47.3" transform="translate(8514.93 3249.08) rotate(180)"/><rect class="cls-5" x="4373.72" y="1675.84" width="47.3" height="47.3" transform="translate(8794.74 3398.98) rotate(180)"/><rect class="cls-5" x="4233.81" y="1675.84" width="47.3" height="47.3" transform="translate(8514.93 3398.98) rotate(180)"/><rect class="cls-5" x="4373.72" y="1750.79" width="47.3" height="47.3" transform="translate(8794.74 3548.88) rotate(180)"/><rect class="cls-5" x="4303.77" y="1750.79" width="47.3" height="47.3" transform="translate(8654.83 3548.88) rotate(180)"/><rect class="cls-5" x="4373.72" y="1825.74" width="47.3" height="47.3" transform="translate(8794.74 3698.79) rotate(180)"/><rect class="cls-5" x="4233.81" y="1825.74" width="47.3" height="47.3" transform="translate(8514.93 3698.79) rotate(180)"/><rect class="cls-5" x="4303.77" y="1900.69" width="47.3" height="47.3" transform="translate(8654.83 3848.69) rotate(180)"/><rect class="cls-5" x="4233.81" y="1900.69" width="47.3" height="47.3" transform="translate(8514.93 3848.69) rotate(180)"/><rect class="cls-5" x="4373.72" y="1975.64" width="47.3" height="47.3" transform="translate(8794.74 3998.59) rotate(180)"/><rect class="cls-5" x="4303.77" y="1975.64" width="47.3" height="47.3" transform="translate(8654.83 3998.59) rotate(180)"/><rect class="cls-5" x="4303.77" y="2050.6" width="47.3" height="47.3" transform="translate(8654.83 4148.49) rotate(180)"/><rect class="cls-5" x="4233.81" y="2050.6" width="47.3" height="47.3" transform="translate(8514.93 4148.49) rotate(180)"/><rect class="cls-5" x="4373.72" y="2125.55" width="47.3" height="47.3" transform="translate(8794.74 4298.39) rotate(180)"/><rect class="cls-5" x="4303.77" y="2125.55" width="47.3" height="47.3" transform="translate(8654.83 4298.39) rotate(180)"/><rect class="cls-5" x="4233.81" y="2125.55" width="47.3" height="47.3" transform="translate(8514.93 4298.39) rotate(180)"/><path class="cls-7" d="M3419.43,1559v-36.39A93.61,93.61,0,0,1,3513,1429h0a93.61,93.61,0,0,1,93.61,93.61V1559H3633v745.86H3393.12V1559Z"/><rect class="cls-5" x="3489.39" y="1610.28" width="47.3" height="47.3" transform="translate(7026.08 3267.87) rotate(180)"/><path class="cls-5" d="M3466.74,1472.61h92.61a0,0,0,0,1,0,0v34.08A46.3,46.3,0,0,1,3513,1553h0a46.3,46.3,0,0,1-46.3-46.3v-34.08a0,0,0,0,1,0,0Z" transform="translate(7026.08 3025.6) rotate(180)"/><rect class="cls-5" x="3419.43" y="1610.28" width="47.3" height="47.3" transform="translate(6886.17 3267.87) rotate(180)"/><rect class="cls-5" x="3559.34" y="1685.24" width="47.3" height="47.3" transform="translate(7165.99 3417.77) rotate(180)"/><rect class="cls-5" x="3419.43" y="1685.24" width="47.3" height="47.3" transform="translate(6886.17 3417.77) rotate(180)"/><rect class="cls-5" x="3489.39" y="1760.19" width="47.3" height="47.3" transform="translate(7026.08 3567.68) rotate(180)"/><rect class="cls-5" x="3419.43" y="1760.19" width="47.3" height="47.3" transform="translate(6886.17 3567.68) rotate(180)"/><rect class="cls-5" x="3559.34" y="1835.14" width="47.3" height="47.3" transform="translate(7165.99 3717.58) rotate(180)"/><rect class="cls-5" x="3489.39" y="1835.14" width="47.3" height="47.3" transform="translate(7026.08 3717.58) rotate(180)"/><rect class="cls-5" x="3489.39" y="1910.09" width="47.3" height="47.3" transform="translate(7026.08 3867.48) rotate(180)"/><rect class="cls-5" x="3419.43" y="1910.09" width="47.3" height="47.3" transform="translate(6886.17 3867.48) rotate(180)"/><rect class="cls-5" x="3489.39" y="1985.04" width="47.3" height="47.3" transform="translate(7026.08 4017.38) rotate(180)"/><rect class="cls-5" x="3419.43" y="1985.04" width="47.3" height="47.3" transform="translate(6886.17 4017.38) rotate(180)"/><rect class="cls-5" x="3559.34" y="2059.99" width="47.3" height="47.3" transform="translate(7165.99 4167.29) rotate(180)"/><rect class="cls-5" x="3489.39" y="2059.99" width="47.3" height="47.3" transform="translate(7026.08 4167.29) rotate(180)"/><rect class="cls-5" x="3419.43" y="2059.99" width="47.3" height="47.3" transform="translate(6886.17 4167.29) rotate(180)"/><rect class="cls-7" x="3644.58" y="1751.17" width="239.84" height="544.65" transform="translate(7529 4046.99) rotate(180)"/><rect class="cls-5" x="3810.8" y="1826.12" width="47.3" height="47.3" transform="translate(7668.91 3699.54) rotate(180)"/><rect class="cls-5" x="3670.9" y="1826.12" width="47.3" height="47.3" transform="translate(7389.09 3699.54) rotate(180)"/><rect class="cls-5" x="3740.85" y="1901.07" width="47.3" height="47.3" transform="translate(7529 3849.45) rotate(180)"/><rect class="cls-5" x="3670.9" y="1901.07" width="47.3" height="47.3" transform="translate(7389.09 3849.45) rotate(180)"/><rect class="cls-5" x="3810.8" y="1976.02" width="47.3" height="47.3" transform="translate(7668.91 3999.35) rotate(180)"/><rect class="cls-5" x="3740.85" y="1976.02" width="47.3" height="47.3" transform="translate(7529 3999.35) rotate(180)"/><rect class="cls-5" x="3810.8" y="2050.97" width="47.3" height="47.3" transform="translate(7668.91 4149.25) rotate(180)"/><rect class="cls-5" x="3740.85" y="2050.97" width="47.3" height="47.3" transform="translate(7529 4149.25) rotate(180)"/><rect class="cls-5" x="3670.9" y="2050.97" width="47.3" height="47.3" transform="translate(7389.09 4149.25) rotate(180)"/><rect class="cls-7" x="3122.18" y="1687.4" width="239.84" height="617.44" transform="translate(6484.21 3992.23) rotate(180)"/><rect class="cls-5" x="3288.41" y="1762.35" width="47.3" height="47.3" transform="translate(6624.12 3572) rotate(180)"/><rect class="cls-5" x="3148.5" y="1762.35" width="47.3" height="47.3" transform="translate(6344.3 3572) rotate(180)"/><rect class="cls-5" x="3218.45" y="1837.3" width="47.3" height="47.3" transform="translate(6484.21 3721.9) rotate(180)"/><rect class="cls-5" x="3148.5" y="1837.3" width="47.3" height="47.3" transform="translate(6344.3 3721.9) rotate(180)"/><rect class="cls-5" x="3288.41" y="1912.25" width="47.3" height="47.3" transform="translate(6624.12 3871.8) rotate(180)"/><rect class="cls-5" x="3218.45" y="1912.25" width="47.3" height="47.3" transform="translate(6484.21 3871.8) rotate(180)"/><rect class="cls-5" x="3288.41" y="1987.2" width="47.3" height="47.3" transform="translate(6624.12 4021.71) rotate(180)"/><rect class="cls-5" x="3218.45" y="1987.2" width="47.3" height="47.3" transform="translate(6484.21 4021.71) rotate(180)"/><rect class="cls-5" x="3148.5" y="1987.2" width="47.3" height="47.3" transform="translate(6344.3 4021.71) rotate(180)"/><polygon class="cls-7" points="3933.52 2304.84 4173.37 2304.84 4173.37 1663.32 3933.52 1813.22 3933.52 2304.84"/><rect class="cls-5" x="4099.75" y="1888.18" width="47.3" height="47.3" transform="translate(8246.8 3823.65) rotate(180)"/><rect class="cls-5" x="4099.75" y="1813.22" width="47.3" height="47.3" transform="translate(8246.8 3673.75) rotate(180)"/><rect class="cls-5" x="4029.79" y="1888.18" width="47.3" height="47.3" transform="translate(8106.89 3823.65) rotate(180)"/><rect class="cls-5" x="3959.84" y="1888.18" width="47.3" height="47.3" transform="translate(7966.98 3823.65) rotate(180)"/><rect class="cls-5" x="4099.75" y="1963.13" width="47.3" height="47.3" transform="translate(8246.8 3973.56) rotate(180)"/><rect class="cls-5" x="4029.79" y="1963.13" width="47.3" height="47.3" transform="translate(8106.89 3973.56) rotate(180)"/><rect class="cls-5" x="3959.84" y="1963.13" width="47.3" height="47.3" transform="translate(7966.98 3973.56) rotate(180)"/><rect class="cls-5" x="4099.75" y="2038.08" width="47.3" height="47.3" transform="translate(8246.8 4123.46) rotate(180)"/><rect class="cls-5" x="4029.79" y="2038.08" width="47.3" height="47.3" transform="translate(8106.89 4123.46) rotate(180)"/><rect class="cls-5" x="3959.84" y="2038.08" width="47.3" height="47.3" transform="translate(7966.98 4123.46) rotate(180)"/><rect class="cls-5" x="4099.75" y="2113.03" width="47.3" height="47.3" transform="translate(8246.8 4273.36) rotate(180)"/><rect class="cls-5" x="4029.79" y="2113.03" width="47.3" height="47.3" transform="translate(8106.89 4273.36) rotate(180)"/><rect class="cls-5" x="3959.84" y="2113.03" width="47.3" height="47.3" transform="translate(7966.98 4273.36) rotate(180)"/><rect class="cls-7" x="2750.77" y="1591.16" width="239.84" height="713.68" transform="translate(5741.39 3895.99) rotate(180)"/><rect class="cls-5" x="2847.04" y="1620.8" width="47.3" height="47.3" transform="translate(5741.39 3288.91) rotate(180)"/><rect class="cls-5" x="2777.09" y="1620.8" width="47.3" height="47.3" transform="translate(5601.48 3288.91) rotate(180)"/><rect class="cls-5" x="2917" y="1695.75" width="47.3" height="47.3" transform="translate(5881.3 3438.81) rotate(180)"/><rect class="cls-5" x="2777.09" y="1695.75" width="47.3" height="47.3" transform="translate(5601.48 3438.81) rotate(180)"/><rect class="cls-5" x="2917" y="1770.7" width="47.3" height="47.3" transform="translate(5881.3 3588.71) rotate(180)"/><rect class="cls-5" x="2847.04" y="1770.7" width="47.3" height="47.3" transform="translate(5741.39 3588.71) rotate(180)"/><rect class="cls-5" x="2917" y="1845.66" width="47.3" height="47.3" transform="translate(5881.3 3738.61) rotate(180)"/><rect class="cls-5" x="2777.09" y="1845.66" width="47.3" height="47.3" transform="translate(5601.48 3738.61) rotate(180)"/><rect class="cls-5" x="2847.04" y="1920.61" width="47.3" height="47.3" transform="translate(5741.39 3888.52) rotate(180)"/><rect class="cls-5" x="2777.09" y="1920.61" width="47.3" height="47.3" transform="translate(5601.48 3888.52) rotate(180)"/><rect class="cls-5" x="2917" y="1995.56" width="47.3" height="47.3" transform="translate(5881.3 4038.42) rotate(180)"/><rect class="cls-5" x="2847.04" y="1995.56" width="47.3" height="47.3" transform="translate(5741.39 4038.42) rotate(180)"/><rect class="cls-5" x="2847.04" y="2070.51" width="47.3" height="47.3" transform="translate(5741.39 4188.32) rotate(180)"/><rect class="cls-5" x="2777.09" y="2070.51" width="47.3" height="47.3" transform="translate(5601.48 4188.32) rotate(180)"/><rect class="cls-5" x="2917" y="2145.46" width="47.3" height="47.3" transform="translate(5881.3 4338.22) rotate(180)"/><rect class="cls-5" x="2847.04" y="2145.46" width="47.3" height="47.3" transform="translate(5741.39 4338.22) rotate(180)"/><rect class="cls-5" x="2777.09" y="2145.46" width="47.3" height="47.3" transform="translate(5601.48 4338.22) rotate(180)"/><polygon class="cls-7" points="2434.33 1680.95 2434.33 1578.35 2460.28 1578.35 2460.28 1501.4 2700.12 1501.4 2700.12 1578.35 2726.07 1578.35 2726.07 1680.95 2700.12 1680.95 2700.12 1728.26 2726.07 1728.26 2726.07 1830.86 2700.12 1830.86 2700.12 1878.16 2726.07 1878.16 2726.07 1980.76 2700.12 1980.76 2700.12 2304.84 2460.28 2304.84 2460.28 1980.76 2434.33 1980.76 2434.33 1878.16 2460.28 1878.16 2460.28 1830.86 2434.33 1830.86 2434.33 1728.26 2460.28 1728.26 2460.28 1680.95 2434.33 1680.95"/><rect class="cls-5" x="2626.5" y="1531.05" width="47.3" height="47.3" transform="translate(5300.31 3109.41) rotate(180)"/><rect class="cls-5" x="2556.55" y="1531.05" width="47.3" height="47.3" transform="translate(5160.4 3109.41) rotate(180)"/><rect class="cls-5" x="2556.55" y="1606" width="47.3" height="47.3" transform="translate(5160.4 3259.31) rotate(180)"/><rect class="cls-5" x="2486.59" y="1606" width="47.3" height="47.3" transform="translate(5020.49 3259.31) rotate(180)"/><rect class="cls-5" x="2626.5" y="1680.95" width="47.3" height="47.3" transform="translate(5300.31 3409.21) rotate(180)"/><rect class="cls-5" x="2486.59" y="1680.95" width="47.3" height="47.3" transform="translate(5020.49 3409.21) rotate(180)"/><rect class="cls-5" x="2556.55" y="1755.91" width="47.3" height="47.3" transform="translate(5160.4 3559.11) rotate(180)"/><rect class="cls-5" x="2486.59" y="1755.91" width="47.3" height="47.3" transform="translate(5020.49 3559.11) rotate(180)"/><rect class="cls-5" x="2626.5" y="1830.86" width="47.3" height="47.3" transform="translate(5300.31 3709.02) rotate(180)"/><rect class="cls-5" x="2556.55" y="1830.86" width="47.3" height="47.3" transform="translate(5160.4 3709.02) rotate(180)"/><rect class="cls-5" x="2626.5" y="1905.81" width="47.3" height="47.3" transform="translate(5300.31 3858.92) rotate(180)"/><rect class="cls-5" x="2486.59" y="1905.81" width="47.3" height="47.3" transform="translate(5020.49 3858.92) rotate(180)"/><rect class="cls-5" x="2626.5" y="1980.76" width="47.3" height="47.3" transform="translate(5300.31 4008.82) rotate(180)"/><rect class="cls-5" x="2556.55" y="1980.76" width="47.3" height="47.3" transform="translate(5160.4 4008.82) rotate(180)"/><rect class="cls-5" x="2486.59" y="1980.76" width="47.3" height="47.3" transform="translate(5020.49 4008.82) rotate(180)"/><rect class="cls-5" x="2556.55" y="2055.71" width="47.3" height="47.3" transform="translate(5160.4 4158.72) rotate(180)"/><rect class="cls-5" x="2486.59" y="2055.71" width="47.3" height="47.3" transform="translate(5020.49 4158.72) rotate(180)"/><polygon class="cls-7" points="2415.68 2308.81 2175.84 2308.81 2175.84 1699.73 2415.68 1849.63 2415.68 2308.81"/><rect class="cls-5" x="2202.16" y="1924.58" width="47.3" height="47.3"/><rect class="cls-5" x="2202.16" y="1849.63" width="47.3" height="47.3"/><rect class="cls-5" x="2272.11" y="1924.58" width="47.3" height="47.3"/><rect class="cls-5" x="2342.06" y="1924.58" width="47.3" height="47.3"/><rect class="cls-5" x="2202.16" y="1999.53" width="47.3" height="47.3"/><rect class="cls-5" x="2272.11" y="1999.53" width="47.3" height="47.3"/><rect class="cls-5" x="2342.06" y="1999.53" width="47.3" height="47.3"/><rect class="cls-5" x="2202.16" y="2074.48" width="47.3" height="47.3"/><rect class="cls-5" x="2272.11" y="2074.48" width="47.3" height="47.3"/><rect class="cls-5" x="2342.06" y="2074.48" width="47.3" height="47.3"/><rect class="cls-5" x="2202.16" y="2149.43" width="47.3" height="47.3"/><rect class="cls-5" x="2272.11" y="2149.43" width="47.3" height="47.3"/><rect class="cls-5" x="2342.06" y="2149.43" width="47.3" height="47.3"/></g><g class="cls-4"><rect class="cls-5" y="1934.21" width="2141.5" height="375.38" transform="translate(2141.5 4243.81) rotate(180)"/><rect class="cls-5" x="1808.25" y="1471.89" width="217.78" height="648.02" transform="translate(3834.27 3591.79) rotate(180)"/><rect class="cls-6" x="1895.66" y="1498.81" width="42.95" height="42.95" transform="translate(3834.27 3040.56) rotate(180)"/><rect class="cls-6" x="1832.14" y="1498.81" width="42.95" height="42.95" transform="translate(3707.24 3040.56) rotate(180)"/><rect class="cls-6" x="1959.18" y="1566.86" width="42.95" height="42.95" transform="translate(3961.31 3176.67) rotate(180)"/><rect class="cls-6" x="1832.14" y="1566.86" width="42.95" height="42.95" transform="translate(3707.24 3176.67) rotate(180)"/><rect class="cls-6" x="1959.18" y="1634.92" width="42.95" height="42.95" transform="translate(3961.31 3312.78) rotate(180)"/><rect class="cls-6" x="1895.66" y="1634.92" width="42.95" height="42.95" transform="translate(3834.27 3312.78) rotate(180)"/><rect class="cls-6" x="1959.18" y="1702.97" width="42.95" height="42.95" transform="translate(3961.31 3448.89) rotate(180)"/><rect class="cls-6" x="1832.14" y="1702.97" width="42.95" height="42.95" transform="translate(3707.24 3448.89) rotate(180)"/><rect class="cls-6" x="1895.66" y="1771.03" width="42.95" height="42.95" transform="translate(3834.27 3585) rotate(180)"/><rect class="cls-6" x="1832.14" y="1771.03" width="42.95" height="42.95" transform="translate(3707.24 3585) rotate(180)"/><rect class="cls-6" x="1959.18" y="1839.08" width="42.95" height="42.95" transform="translate(3961.31 3721.11) rotate(180)"/><rect class="cls-6" x="1895.66" y="1839.08" width="42.95" height="42.95" transform="translate(3834.27 3721.11) rotate(180)"/><rect class="cls-6" x="1895.66" y="1907.14" width="42.95" height="42.95" transform="translate(3834.27 3857.22) rotate(180)"/><rect class="cls-6" x="1832.14" y="1907.14" width="42.95" height="42.95" transform="translate(3707.24 3857.22) rotate(180)"/><rect class="cls-6" x="1959.18" y="1975.19" width="42.95" height="42.95" transform="translate(3961.31 3993.33) rotate(180)"/><rect class="cls-6" x="1895.66" y="1975.19" width="42.95" height="42.95" transform="translate(3834.27 3993.33) rotate(180)"/><rect class="cls-6" x="1832.14" y="1975.19" width="42.95" height="42.95" transform="translate(3707.24 3993.33) rotate(180)"/><rect class="cls-5" x="1536.88" y="1319.18" width="217.78" height="648.02" transform="translate(3291.53 3286.38) rotate(180)"/><rect class="cls-6" x="1624.29" y="1346.1" width="42.95" height="42.95" transform="translate(3291.53 2735.15) rotate(180)"/><rect class="cls-6" x="1560.77" y="1346.1" width="42.95" height="42.95" transform="translate(3164.5 2735.15) rotate(180)"/><rect class="cls-6" x="1687.81" y="1414.16" width="42.95" height="42.95" transform="translate(3418.57 2871.26) rotate(180)"/><rect class="cls-6" x="1560.77" y="1414.16" width="42.95" height="42.95" transform="translate(3164.5 2871.26) rotate(180)"/><rect class="cls-6" x="1687.81" y="1482.21" width="42.95" height="42.95" transform="translate(3418.57 3007.37) rotate(180)"/><rect class="cls-6" x="1624.29" y="1482.21" width="42.95" height="42.95" transform="translate(3291.53 3007.37) rotate(180)"/><rect class="cls-6" x="1687.81" y="1550.27" width="42.95" height="42.95" transform="translate(3418.57 3143.49) rotate(180)"/><rect class="cls-6" x="1560.77" y="1550.27" width="42.95" height="42.95" transform="translate(3164.5 3143.49) rotate(180)"/><rect class="cls-6" x="1624.29" y="1618.32" width="42.95" height="42.95" transform="translate(3291.53 3279.6) rotate(180)"/><rect class="cls-6" x="1560.77" y="1618.32" width="42.95" height="42.95" transform="translate(3164.5 3279.6) rotate(180)"/><rect class="cls-6" x="1687.81" y="1686.38" width="42.95" height="42.95" transform="translate(3418.57 3415.71) rotate(180)"/><rect class="cls-6" x="1624.29" y="1686.38" width="42.95" height="42.95" transform="translate(3291.53 3415.71) rotate(180)"/><rect class="cls-6" x="1624.29" y="1754.43" width="42.95" height="42.95" transform="translate(3291.53 3551.82) rotate(180)"/><rect class="cls-6" x="1560.77" y="1754.43" width="42.95" height="42.95" transform="translate(3164.5 3551.82) rotate(180)"/><rect class="cls-6" x="1687.81" y="1822.49" width="42.95" height="42.95" transform="translate(3418.57 3687.93) rotate(180)"/><rect class="cls-6" x="1624.29" y="1822.49" width="42.95" height="42.95" transform="translate(3291.53 3687.93) rotate(180)"/><rect class="cls-6" x="1560.77" y="1822.49" width="42.95" height="42.95" transform="translate(3164.5 3687.93) rotate(180)"/><rect class="cls-5" x="511.17" y="1396.2" width="217.78" height="648.02" transform="translate(1240.12 3440.41) rotate(180)"/><rect class="cls-6" x="598.58" y="1423.12" width="42.95" height="42.95" transform="translate(1240.12 2889.18) rotate(180)"/><rect class="cls-6" x="535.07" y="1423.12" width="42.95" height="42.95" transform="translate(1113.08 2889.18) rotate(180)"/><rect class="cls-6" x="662.1" y="1491.17" width="42.95" height="42.95" transform="translate(1367.16 3025.29) rotate(180)"/><rect class="cls-6" x="535.07" y="1491.17" width="42.95" height="42.95" transform="translate(1113.08 3025.29) rotate(180)"/><rect class="cls-6" x="662.1" y="1559.23" width="42.95" height="42.95" transform="translate(1367.16 3161.4) rotate(180)"/><rect class="cls-6" x="598.58" y="1559.23" width="42.95" height="42.95" transform="translate(1240.12 3161.4) rotate(180)"/><rect class="cls-6" x="662.1" y="1627.28" width="42.95" height="42.95" transform="translate(1367.16 3297.52) rotate(180)"/><rect class="cls-6" x="535.07" y="1627.28" width="42.95" height="42.95" transform="translate(1113.08 3297.52) rotate(180)"/><rect class="cls-6" x="598.58" y="1695.34" width="42.95" height="42.95" transform="translate(1240.12 3433.63) rotate(180)"/><rect class="cls-6" x="535.07" y="1695.34" width="42.95" height="42.95" transform="translate(1113.08 3433.63) rotate(180)"/><rect class="cls-6" x="662.1" y="1763.39" width="42.95" height="42.95" transform="translate(1367.16 3569.74) rotate(180)"/><rect class="cls-6" x="598.58" y="1763.39" width="42.95" height="42.95" transform="translate(1240.12 3569.74) rotate(180)"/><rect class="cls-6" x="598.58" y="1831.45" width="42.95" height="42.95" transform="translate(1240.12 3705.85) rotate(180)"/><rect class="cls-6" x="535.07" y="1831.45" width="42.95" height="42.95" transform="translate(1113.08 3705.85) rotate(180)"/><rect class="cls-6" x="662.1" y="1899.5" width="42.95" height="42.95" transform="translate(1367.16 3841.96) rotate(180)"/><rect class="cls-6" x="598.58" y="1899.5" width="42.95" height="42.95" transform="translate(1240.12 3841.96) rotate(180)"/><rect class="cls-6" x="535.07" y="1899.5" width="42.95" height="42.95" transform="translate(1113.08 3841.96) rotate(180)"/><path class="cls-5" d="M191.31,1479.41v-33a85,85,0,0,1,85-85h0a85,85,0,0,1,85,85v33h23.9V2079H167.41V1479.41Z"/><rect class="cls-6" x="254.83" y="1526" width="42.95" height="42.95" transform="translate(552.6 3094.94) rotate(180)"/><path class="cls-6" d="M234.26,1401h84.09a0,0,0,0,1,0,0v30.94a42,42,0,0,1-42,42h0a42,42,0,0,1-42-42V1401A0,0,0,0,1,234.26,1401Z" transform="translate(552.6 2874.96) rotate(180)"/><rect class="cls-6" x="191.31" y="1526" width="42.95" height="42.95" transform="translate(425.56 3094.94) rotate(180)"/><rect class="cls-6" x="318.34" y="1594.05" width="42.95" height="42.95" transform="translate(679.64 3231.05) rotate(180)"/><rect class="cls-6" x="191.31" y="1594.05" width="42.95" height="42.95" transform="translate(425.56 3231.05) rotate(180)"/><rect class="cls-6" x="254.83" y="1662.11" width="42.95" height="42.95" transform="translate(552.6 3367.16) rotate(180)"/><rect class="cls-6" x="191.31" y="1662.11" width="42.95" height="42.95" transform="translate(425.56 3367.16) rotate(180)"/><rect class="cls-6" x="318.34" y="1730.16" width="42.95" height="42.95" transform="translate(679.64 3503.27) rotate(180)"/><rect class="cls-6" x="254.83" y="1730.16" width="42.95" height="42.95" transform="translate(552.6 3503.27) rotate(180)"/><rect class="cls-6" x="254.83" y="1798.22" width="42.95" height="42.95" transform="translate(552.6 3639.38) rotate(180)"/><rect class="cls-6" x="191.31" y="1798.22" width="42.95" height="42.95" transform="translate(425.56 3639.38) rotate(180)"/><rect class="cls-6" x="254.83" y="1866.27" width="42.95" height="42.95" transform="translate(552.6 3775.49) rotate(180)"/><rect class="cls-6" x="191.31" y="1866.27" width="42.95" height="42.95" transform="translate(425.56 3775.49) rotate(180)"/><rect class="cls-6" x="318.34" y="1934.33" width="42.95" height="42.95" transform="translate(679.64 3911.6) rotate(180)"/><rect class="cls-6" x="254.83" y="1934.33" width="42.95" height="42.95" transform="translate(552.6 3911.6) rotate(180)"/><rect class="cls-6" x="191.31" y="1934.33" width="42.95" height="42.95" transform="translate(425.56 3911.6) rotate(180)"/><rect class="cls-5" x="851.23" y="1552.43" width="217.78" height="416.93" transform="translate(1920.25 3521.79) rotate(180)"/><rect class="cls-6" x="1002.17" y="1620.48" width="42.95" height="42.95" transform="translate(2047.28 3283.92) rotate(180)"/><rect class="cls-6" x="875.13" y="1620.48" width="42.95" height="42.95" transform="translate(1793.21 3283.92) rotate(180)"/><rect class="cls-6" x="938.65" y="1688.54" width="42.95" height="42.95" transform="translate(1920.25 3420.03) rotate(180)"/><rect class="cls-6" x="875.13" y="1688.54" width="42.95" height="42.95" transform="translate(1793.21 3420.03) rotate(180)"/><rect class="cls-6" x="1002.17" y="1756.59" width="42.95" height="42.95" transform="translate(2047.28 3556.14) rotate(180)"/><rect class="cls-6" x="938.65" y="1756.59" width="42.95" height="42.95" transform="translate(1920.25 3556.14) rotate(180)"/><rect class="cls-6" x="1002.17" y="1824.65" width="42.95" height="42.95" transform="translate(2047.28 3692.25) rotate(180)"/><rect class="cls-6" x="938.65" y="1824.65" width="42.95" height="42.95" transform="translate(1920.25 3692.25) rotate(180)"/><rect class="cls-6" x="875.13" y="1824.65" width="42.95" height="42.95" transform="translate(1793.21 3692.25) rotate(180)"/><rect class="cls-5" x="1402.31" y="1720.99" width="217.78" height="416.93" transform="translate(3022.4 3858.91) rotate(180)"/><rect class="cls-6" x="1553.24" y="1789.04" width="42.95" height="42.95" transform="translate(3149.43 3621.04) rotate(180)"/><rect class="cls-6" x="1426.2" y="1789.04" width="42.95" height="42.95" transform="translate(2895.36 3621.04) rotate(180)"/><rect class="cls-6" x="1489.72" y="1857.1" width="42.95" height="42.95" transform="translate(3022.4 3757.15) rotate(180)"/><rect class="cls-6" x="1426.2" y="1857.1" width="42.95" height="42.95" transform="translate(2895.36 3757.15) rotate(180)"/><rect class="cls-6" x="1553.24" y="1925.15" width="42.95" height="42.95" transform="translate(3149.43 3893.26) rotate(180)"/><rect class="cls-6" x="1489.72" y="1925.15" width="42.95" height="42.95" transform="translate(3022.4 3893.26) rotate(180)"/><rect class="cls-6" x="1553.24" y="1993.21" width="42.95" height="42.95" transform="translate(3149.43 4029.37) rotate(180)"/><rect class="cls-6" x="1489.72" y="1993.21" width="42.95" height="42.95" transform="translate(3022.4 4029.37) rotate(180)"/><rect class="cls-6" x="1426.2" y="1993.21" width="42.95" height="42.95" transform="translate(2895.36 4029.37) rotate(180)"/><rect class="cls-5" x="756.62" y="1826.36" width="217.78" height="416.93" transform="translate(1731.01 4069.66) rotate(180)"/><rect class="cls-6" x="907.55" y="1894.42" width="42.95" height="42.95" transform="translate(1858.05 3831.79) rotate(180)"/><rect class="cls-6" x="780.51" y="1894.42" width="42.95" height="42.95" transform="translate(1603.97 3831.79) rotate(180)"/><rect class="cls-6" x="844.03" y="1962.47" width="42.95" height="42.95" transform="translate(1731.01 3967.9) rotate(180)"/><rect class="cls-6" x="780.51" y="1962.47" width="42.95" height="42.95" transform="translate(1603.97 3967.9) rotate(180)"/><rect class="cls-6" x="907.55" y="2030.53" width="42.95" height="42.95" transform="translate(1858.05 4104.01) rotate(180)"/><rect class="cls-6" x="844.03" y="2030.53" width="42.95" height="42.95" transform="translate(1731.01 4104.01) rotate(180)"/><rect class="cls-6" x="907.55" y="2098.58" width="42.95" height="42.95" transform="translate(1858.05 4240.12) rotate(180)"/><rect class="cls-6" x="844.03" y="2098.58" width="42.95" height="42.95" transform="translate(1731.01 4240.12) rotate(180)"/><rect class="cls-6" x="780.51" y="2098.58" width="42.95" height="42.95" transform="translate(1603.97 4240.12) rotate(180)"/><polygon class="cls-5" points="1458.56 1993.21 1676.34 1993.21 1676.34 1440.17 1458.56 1576.28 1458.56 1993.21"/><rect class="cls-6" x="1609.49" y="1644.33" width="42.95" height="42.95" transform="translate(3261.94 3331.61) rotate(180)"/><rect class="cls-6" x="1609.49" y="1576.28" width="42.95" height="42.95" transform="translate(3261.94 3195.5) rotate(180)"/><rect class="cls-6" x="1545.98" y="1644.33" width="42.95" height="42.95" transform="translate(3134.9 3331.61) rotate(180)"/><rect class="cls-6" x="1482.46" y="1644.33" width="42.95" height="42.95" transform="translate(3007.87 3331.61) rotate(180)"/><rect class="cls-6" x="1609.49" y="1712.39" width="42.95" height="42.95" transform="translate(3261.94 3467.72) rotate(180)"/><rect class="cls-6" x="1545.98" y="1712.39" width="42.95" height="42.95" transform="translate(3134.9 3467.72) rotate(180)"/><rect class="cls-6" x="1482.46" y="1712.39" width="42.95" height="42.95" transform="translate(3007.87 3467.72) rotate(180)"/><rect class="cls-6" x="1609.49" y="1780.44" width="42.95" height="42.95" transform="translate(3261.94 3603.83) rotate(180)"/><rect class="cls-6" x="1545.98" y="1780.44" width="42.95" height="42.95" transform="translate(3134.9 3603.83) rotate(180)"/><rect class="cls-6" x="1482.46" y="1780.44" width="42.95" height="42.95" transform="translate(3007.87 3603.83) rotate(180)"/><rect class="cls-6" x="1609.49" y="1848.5" width="42.95" height="42.95" transform="translate(3261.94 3739.94) rotate(180)"/><rect class="cls-6" x="1545.98" y="1848.5" width="42.95" height="42.95" transform="translate(3134.9 3739.94) rotate(180)"/><rect class="cls-6" x="1482.46" y="1848.5" width="42.95" height="42.95" transform="translate(3007.87 3739.94) rotate(180)"/><rect class="cls-7" x="1875.91" y="1639.89" width="217.78" height="677.47" transform="translate(3969.6 3957.24) rotate(180)"/><rect class="cls-5" x="1963.32" y="1666.81" width="42.95" height="42.95" transform="translate(3969.6 3376.56) rotate(180)"/><rect class="cls-5" x="1899.8" y="1666.81" width="42.95" height="42.95" transform="translate(3842.56 3376.56) rotate(180)"/><rect class="cls-5" x="2026.84" y="1734.86" width="42.95" height="42.95" transform="translate(4096.63 3512.67) rotate(180)"/><rect class="cls-5" x="1899.8" y="1734.86" width="42.95" height="42.95" transform="translate(3842.56 3512.67) rotate(180)"/><rect class="cls-5" x="2026.84" y="1802.92" width="42.95" height="42.95" transform="translate(4096.63 3648.78) rotate(180)"/><rect class="cls-5" x="1963.32" y="1802.92" width="42.95" height="42.95" transform="translate(3969.6 3648.78) rotate(180)"/><rect class="cls-5" x="2026.84" y="1870.97" width="42.95" height="42.95" transform="translate(4096.63 3784.9) rotate(180)"/><rect class="cls-5" x="1899.8" y="1870.97" width="42.95" height="42.95" transform="translate(3842.56 3784.9) rotate(180)"/><rect class="cls-5" x="1963.32" y="1939.03" width="42.95" height="42.95" transform="translate(3969.6 3921.01) rotate(180)"/><rect class="cls-5" x="1899.8" y="1939.03" width="42.95" height="42.95" transform="translate(3842.56 3921.01) rotate(180)"/><rect class="cls-5" x="2026.84" y="2007.08" width="42.95" height="42.95" transform="translate(4096.63 4057.12) rotate(180)"/><rect class="cls-5" x="1963.32" y="2007.08" width="42.95" height="42.95" transform="translate(3969.6 4057.12) rotate(180)"/><rect class="cls-5" x="1963.32" y="2075.14" width="42.95" height="42.95" transform="translate(3969.6 4193.23) rotate(180)"/><rect class="cls-5" x="1899.8" y="2075.14" width="42.95" height="42.95" transform="translate(3842.56 4193.23) rotate(180)"/><rect class="cls-5" x="2026.84" y="2143.19" width="42.95" height="42.95" transform="translate(4096.63 4329.34) rotate(180)"/><rect class="cls-5" x="1963.32" y="2143.19" width="42.95" height="42.95" transform="translate(3969.6 4329.34) rotate(180)"/><rect class="cls-5" x="1899.8" y="2143.19" width="42.95" height="42.95" transform="translate(3842.56 4329.34) rotate(180)"/><path class="cls-7" d="M1160.36,1628.76v-33a85,85,0,0,1,85-85h0a85,85,0,0,1,85,85v33h23.9V2306H1136.46V1628.76Z"/><rect class="cls-5" x="1223.87" y="1675.34" width="42.95" height="42.95" transform="translate(2490.7 3393.63) rotate(180)"/><path class="cls-5" d="M1203.31,1623.31h84.08v-30.94a42,42,0,0,0-42-42h0a42,42,0,0,0-42,42Z"/><rect class="cls-5" x="1160.36" y="1675.34" width="42.95" height="42.95" transform="translate(2363.66 3393.63) rotate(180)"/><rect class="cls-5" x="1287.39" y="1743.39" width="42.95" height="42.95" transform="translate(2617.73 3529.74) rotate(180)"/><rect class="cls-5" x="1160.36" y="1743.39" width="42.95" height="42.95" transform="translate(2363.66 3529.74) rotate(180)"/><rect class="cls-5" x="1223.87" y="1811.45" width="42.95" height="42.95" transform="translate(2490.7 3665.85) rotate(180)"/><rect class="cls-5" x="1160.36" y="1811.45" width="42.95" height="42.95" transform="translate(2363.66 3665.85) rotate(180)"/><rect class="cls-5" x="1287.39" y="1879.5" width="42.95" height="42.95" transform="translate(2617.73 3801.96) rotate(180)"/><rect class="cls-5" x="1223.87" y="1879.5" width="42.95" height="42.95" transform="translate(2490.7 3801.96) rotate(180)"/><rect class="cls-5" x="1223.87" y="1947.56" width="42.95" height="42.95" transform="translate(2490.7 3938.07) rotate(180)"/><rect class="cls-5" x="1160.36" y="1947.56" width="42.95" height="42.95" transform="translate(2363.66 3938.07) rotate(180)"/><rect class="cls-5" x="1223.87" y="2015.61" width="42.95" height="42.95" transform="translate(2490.7 4074.18) rotate(180)"/><rect class="cls-5" x="1160.36" y="2015.61" width="42.95" height="42.95" transform="translate(2363.66 4074.18) rotate(180)"/><rect class="cls-5" x="1287.39" y="2083.67" width="42.95" height="42.95" transform="translate(2617.73 4210.29) rotate(180)"/><rect class="cls-5" x="1223.87" y="2083.67" width="42.95" height="42.95" transform="translate(2490.7 4210.29) rotate(180)"/><rect class="cls-5" x="1160.36" y="2083.67" width="42.95" height="42.95" transform="translate(2363.66 4210.29) rotate(180)"/><rect class="cls-7" x="1364.78" y="1803.26" width="217.78" height="494.54" transform="translate(2947.35 4101.06) rotate(180)"/><rect class="cls-5" x="1515.72" y="1871.32" width="42.95" height="42.95" transform="translate(3074.38 3785.58) rotate(180)"/><rect class="cls-5" x="1388.68" y="1871.32" width="42.95" height="42.95" transform="translate(2820.31 3785.58) rotate(180)"/><rect class="cls-5" x="1452.2" y="1939.37" width="42.95" height="42.95" transform="translate(2947.35 3921.69) rotate(180)"/><rect class="cls-5" x="1388.68" y="1939.37" width="42.95" height="42.95" transform="translate(2820.31 3921.69) rotate(180)"/><rect class="cls-5" x="1515.72" y="2007.43" width="42.95" height="42.95" transform="translate(3074.38 4057.8) rotate(180)"/><rect class="cls-5" x="1452.2" y="2007.43" width="42.95" height="42.95" transform="translate(2947.35 4057.8) rotate(180)"/><rect class="cls-5" x="1515.72" y="2075.48" width="42.95" height="42.95" transform="translate(3074.38 4193.91) rotate(180)"/><rect class="cls-5" x="1452.2" y="2075.48" width="42.95" height="42.95" transform="translate(2947.35 4193.91) rotate(180)"/><rect class="cls-5" x="1388.68" y="2075.48" width="42.95" height="42.95" transform="translate(2820.31 4193.91) rotate(180)"/><rect class="cls-7" x="890.45" y="1745.36" width="217.78" height="560.63" transform="translate(1998.68 4051.34) rotate(180)"/><rect class="cls-5" x="1041.38" y="1813.41" width="42.95" height="42.95" transform="translate(2125.72 3669.77) rotate(180)"/><rect class="cls-5" x="914.35" y="1813.41" width="42.95" height="42.95" transform="translate(1871.64 3669.77) rotate(180)"/><rect class="cls-5" x="977.87" y="1881.47" width="42.95" height="42.95" transform="translate(1998.68 3805.89) rotate(180)"/><rect class="cls-5" x="914.35" y="1881.47" width="42.95" height="42.95" transform="translate(1871.64 3805.89) rotate(180)"/><rect class="cls-5" x="1041.38" y="1949.52" width="42.95" height="42.95" transform="translate(2125.72 3942) rotate(180)"/><rect class="cls-5" x="977.87" y="1949.52" width="42.95" height="42.95" transform="translate(1998.68 3942) rotate(180)"/><rect class="cls-5" x="1041.38" y="2017.58" width="42.95" height="42.95" transform="translate(2125.72 4078.11) rotate(180)"/><rect class="cls-5" x="977.87" y="2017.58" width="42.95" height="42.95" transform="translate(1998.68 4078.11) rotate(180)"/><rect class="cls-5" x="914.35" y="2017.58" width="42.95" height="42.95" transform="translate(1871.64 4078.11) rotate(180)"/><polygon class="cls-7" points="1627.14 2305.99 1844.92 2305.99 1844.92 1723.5 1627.14 1859.61 1627.14 2305.99"/><rect class="cls-5" x="1778.08" y="1927.66" width="42.95" height="42.95" transform="translate(3599.1 3898.27) rotate(180)"/><rect class="cls-5" x="1778.08" y="1859.61" width="42.95" height="42.95" transform="translate(3599.1 3762.16) rotate(180)"/><rect class="cls-5" x="1714.56" y="1927.66" width="42.95" height="42.95" transform="translate(3472.07 3898.27) rotate(180)"/><rect class="cls-5" x="1651.04" y="1927.66" width="42.95" height="42.95" transform="translate(3345.03 3898.27) rotate(180)"/><rect class="cls-5" x="1778.08" y="1995.72" width="42.95" height="42.95" transform="translate(3599.1 4034.39) rotate(180)"/><rect class="cls-5" x="1714.56" y="1995.72" width="42.95" height="42.95" transform="translate(3472.07 4034.39) rotate(180)"/><rect class="cls-5" x="1651.04" y="1995.72" width="42.95" height="42.95" transform="translate(3345.03 4034.39) rotate(180)"/><rect class="cls-5" x="1778.08" y="2063.77" width="42.95" height="42.95" transform="translate(3599.1 4170.5) rotate(180)"/><rect class="cls-5" x="1714.56" y="2063.77" width="42.95" height="42.95" transform="translate(3472.07 4170.5) rotate(180)"/><rect class="cls-5" x="1651.04" y="2063.77" width="42.95" height="42.95" transform="translate(3345.03 4170.5) rotate(180)"/><rect class="cls-5" x="1778.08" y="2131.83" width="42.95" height="42.95" transform="translate(3599.1 4306.61) rotate(180)"/><rect class="cls-5" x="1714.56" y="2131.83" width="42.95" height="42.95" transform="translate(3472.07 4306.61) rotate(180)"/><rect class="cls-5" x="1651.04" y="2131.83" width="42.95" height="42.95" transform="translate(3345.03 4306.61) rotate(180)"/><rect class="cls-7" x="553.21" y="1657.97" width="217.78" height="648.02" transform="translate(1324.21 3963.96) rotate(180)"/><rect class="cls-5" x="640.63" y="1684.89" width="42.95" height="42.95" transform="translate(1324.21 3412.73) rotate(180)"/><rect class="cls-5" x="577.11" y="1684.89" width="42.95" height="42.95" transform="translate(1197.17 3412.73) rotate(180)"/><rect class="cls-5" x="704.15" y="1752.94" width="42.95" height="42.95" transform="translate(1451.24 3548.84) rotate(180)"/><rect class="cls-5" x="577.11" y="1752.94" width="42.95" height="42.95" transform="translate(1197.17 3548.84) rotate(180)"/><rect class="cls-5" x="704.15" y="1821" width="42.95" height="42.95" transform="translate(1451.24 3684.95) rotate(180)"/><rect class="cls-5" x="640.63" y="1821" width="42.95" height="42.95" transform="translate(1324.21 3684.95) rotate(180)"/><rect class="cls-5" x="704.15" y="1889.05" width="42.95" height="42.95" transform="translate(1451.24 3821.06) rotate(180)"/><rect class="cls-5" x="577.11" y="1889.05" width="42.95" height="42.95" transform="translate(1197.17 3821.06) rotate(180)"/><rect class="cls-5" x="640.63" y="1957.11" width="42.95" height="42.95" transform="translate(1324.21 3957.17) rotate(180)"/><rect class="cls-5" x="577.11" y="1957.11" width="42.95" height="42.95" transform="translate(1197.17 3957.17) rotate(180)"/><rect class="cls-5" x="704.15" y="2025.17" width="42.95" height="42.95" transform="translate(1451.24 4093.28) rotate(180)"/><rect class="cls-5" x="640.63" y="2025.17" width="42.95" height="42.95" transform="translate(1324.21 4093.28) rotate(180)"/><rect class="cls-5" x="640.63" y="2093.22" width="42.95" height="42.95" transform="translate(1324.21 4229.39) rotate(180)"/><rect class="cls-5" x="577.11" y="2093.22" width="42.95" height="42.95" transform="translate(1197.17 4229.39) rotate(180)"/><rect class="cls-5" x="704.15" y="2161.28" width="42.95" height="42.95" transform="translate(1451.24 4365.5) rotate(180)"/><rect class="cls-5" x="640.63" y="2161.28" width="42.95" height="42.95" transform="translate(1324.21 4365.5) rotate(180)"/><rect class="cls-5" x="577.11" y="2161.28" width="42.95" height="42.95" transform="translate(1197.17 4365.5) rotate(180)"/><polygon class="cls-7" points="265.88 1739.51 265.88 1646.35 289.45 1646.35 289.45 1576.48 507.22 1576.48 507.22 1646.35 530.79 1646.35 530.79 1739.51 507.22 1739.51 507.22 1782.46 530.79 1782.46 530.79 1875.62 507.22 1875.62 507.22 1918.57 530.79 1918.57 530.79 2011.73 507.22 2011.73 507.22 2305.99 289.45 2305.99 289.45 2011.73 265.88 2011.73 265.88 1918.57 289.45 1918.57 289.45 1875.62 265.88 1875.62 265.88 1782.46 289.45 1782.46 289.45 1739.51 265.88 1739.51"/><rect class="cls-5" x="440.38" y="1603.4" width="42.95" height="42.95" transform="translate(923.71 3249.74) rotate(180)"/><rect class="cls-5" x="376.86" y="1603.4" width="42.95" height="42.95" transform="translate(796.67 3249.74) rotate(180)"/><rect class="cls-5" x="376.86" y="1671.45" width="42.95" height="42.95" transform="translate(796.67 3385.85) rotate(180)"/><rect class="cls-5" x="313.34" y="1671.45" width="42.95" height="42.95" transform="translate(669.63 3385.85) rotate(180)"/><rect class="cls-5" x="440.38" y="1739.51" width="42.95" height="42.95" transform="translate(923.71 3521.96) rotate(180)"/><rect class="cls-5" x="313.34" y="1739.51" width="42.95" height="42.95" transform="translate(669.63 3521.96) rotate(180)"/><rect class="cls-5" x="376.86" y="1807.56" width="42.95" height="42.95" transform="translate(796.67 3658.07) rotate(180)"/><rect class="cls-5" x="313.34" y="1807.56" width="42.95" height="42.95" transform="translate(669.63 3658.07) rotate(180)"/><rect class="cls-5" x="440.38" y="1875.62" width="42.95" height="42.95" transform="translate(923.71 3794.18) rotate(180)"/><rect class="cls-5" x="376.86" y="1875.62" width="42.95" height="42.95" transform="translate(796.67 3794.18) rotate(180)"/><rect class="cls-5" x="440.38" y="1943.67" width="42.95" height="42.95" transform="translate(923.71 3930.29) rotate(180)"/><rect class="cls-5" x="313.34" y="1943.67" width="42.95" height="42.95" transform="translate(669.63 3930.29) rotate(180)"/><rect class="cls-5" x="440.38" y="2011.73" width="42.95" height="42.95" transform="translate(923.71 4066.41) rotate(180)"/><rect class="cls-5" x="376.86" y="2011.73" width="42.95" height="42.95" transform="translate(796.67 4066.41) rotate(180)"/><rect class="cls-5" x="313.34" y="2011.73" width="42.95" height="42.95" transform="translate(669.63 4066.41) rotate(180)"/><rect class="cls-5" x="376.86" y="2079.78" width="42.95" height="42.95" transform="translate(796.67 4202.52) rotate(180)"/><rect class="cls-5" x="313.34" y="2079.78" width="42.95" height="42.95" transform="translate(669.63 4202.52) rotate(180)"/><polygon class="cls-7" points="248.95 2309.59 31.18 2309.59 31.18 1756.55 248.95 1892.66 248.95 2309.59"/><rect class="cls-5" x="55.07" y="1960.72" width="42.95" height="42.95"/><rect class="cls-5" x="55.07" y="1892.66" width="42.95" height="42.95"/><rect class="cls-5" x="118.59" y="1960.72" width="42.95" height="42.95"/><rect class="cls-5" x="182.11" y="1960.72" width="42.95" height="42.95"/><rect class="cls-5" x="55.07" y="2028.77" width="42.95" height="42.95"/><rect class="cls-5" x="118.59" y="2028.77" width="42.95" height="42.95"/><rect class="cls-5" x="182.11" y="2028.77" width="42.95" height="42.95"/><rect class="cls-5" x="55.07" y="2096.83" width="42.95" height="42.95"/><rect class="cls-5" x="118.59" y="2096.83" width="42.95" height="42.95"/><rect class="cls-5" x="182.11" y="2096.83" width="42.95" height="42.95"/><rect class="cls-5" x="55.07" y="2164.88" width="42.95" height="42.95"/><rect class="cls-5" x="118.59" y="2164.88" width="42.95" height="42.95"/><rect class="cls-5" x="182.11" y="2164.88" width="42.95" height="42.95"/></g></g></g><g id="ground"><path class="cls-8" d="M4500,2266.37c-558.47-26.1-1359.76-42.46-2250-42.46S558.48,2240.27,0,2266.37V3000H4500Z"/></g><g id="phone"><rect class="cls-9" x="3141.42" y="605.29" width="923.48" height="2007.07" rx="87.99"/><rect class="cls-10" x="3225.36" y="605.29" width="923.48" height="2007.07" rx="87.99"/><rect class="cls-11" x="3236.47" y="605.29" width="923.48" height="2007.07" rx="87.99"/><path class="cls-12" d="M3826.11,773h0a41.88,41.88,0,0,1-41.88,41.88H3612.18A41.88,41.88,0,0,1,3570.3,773h0a58.81,58.81,0,0,0-58.82-58.82H3315a57.56,57.56,0,0,0-57.55,57.56V2522.47a66.76,66.76,0,0,0,66.76,66.76h748a66.76,66.76,0,0,0,66.76-66.76V771.71a57.56,57.56,0,0,0-57.56-57.56H3884.93A58.81,58.81,0,0,0,3826.11,773Z"/><path class="cls-13" d="M4052.49,2589.23,4139,2490v-44l-124.84,143.17Zm86.49-904.4v-77.12l-568.17-501.64,408-391.92h-41.72l-388,372.72L3257.43,829.38v77.11l249.81,220.56-238.56,229.16-11.25-8.62v75.94l16.33-27,822.4,630.13-525.91,525.91q-142.82-142.92-312.82-312.72v40.8c100.65,100.53,199.05,198.9,292.4,292.34l-16.25,16.25h73.29c-5.39-5.41-10.74-10.76-16.2-16.22l528.63-528.63,19.68,15.08v-75.63l-22.2,22.2-824.89-632L3529,1146.25Z"/><path class="cls-14" d="M4139,871.16l-636.85,874.29-244.7-196.83v74.18l210.62,169.43-210.62,289.15v98.17l255.72-351.05,279.48,224.82-516,516a66.55,66.55,0,0,0,47.55,19.93h14.28l499.47-499.47,297.8,239.56-387.6,259.91h103.79l287-192.48v-139l-259.93-209.09L4139,1788.72V1707L3833.74,2012.2l-286.52-230.48L4139,969.34Zm-760.76-157L3257.43,905.08V1013.2l189.19-299.05Z"/><path class="cls-15" d="M3791.55,605.29H3324.46a88,88,0,0,0-88,88V2524.37a88,88,0,0,0,88,88H3687.1C3423.15,1584.6,3696.12,835.8,3791.55,605.29Z"/><g class="cls-16"><rect class="cls-17" x="3992.64" y="774.93" width="11.59" height="64.98"/><rect class="cls-17" x="3976.73" y="791.13" width="11.59" height="48.78"/><rect class="cls-17" x="3960.82" y="807.32" width="11.59" height="32.59"/><rect class="cls-17" x="3944.91" y="823.52" width="11.59" height="16.39"/><path class="cls-17" d="M4056.68,780.05v-5.12h-19.15v5.12h-8.22v59.86h35.59V780.05Zm-25,14.92V782.82h30.87V795Z"/><path class="cls-17" d="M3551.51,905.87h-.33L3533,917.43l-2.74-12.7,22.85-14.39h12.06v123.13h-13.67Z"/><path class="cls-17" d="M3673,950.58c0,41.86-13.36,65-36.36,65-20.43,0-34.43-22.54-34.75-63.27,0-41.48,15.28-64,36.52-64C3660.25,888.25,3673,911.36,3673,950.58Zm-56.79,1.89c0,32,8.36,50.2,21.23,50.2,14.32,0,21.24-19.89,21.24-51.33,0-30.31-6.44-50.21-21.24-50.21C3625.18,901.13,3616.17,918.94,3616.17,952.47Z"/><path class="cls-17" d="M3687.1,936.94c0-7,4-11.94,9.49-11.94,5.8,0,9.5,4.93,9.5,11.94,0,6.63-3.7,11.74-9.66,11.74C3691,948.68,3687.1,943.57,3687.1,936.94Zm0,66.87c0-7,4-11.94,9.49-11.94,5.8,0,9.5,4.93,9.5,11.94,0,6.63-3.7,11.74-9.66,11.74C3691,1015.55,3687.1,1010.44,3687.1,1003.81Z"/><path class="cls-17" d="M3788.77,950.58c0,41.86-13.35,65-36.36,65-20.43,0-34.43-22.54-34.75-63.27,0-41.48,15.28-64,36.52-64C3776.06,888.25,3788.77,911.36,3788.77,950.58ZM3732,952.47c0,32,8.36,50.2,21.23,50.2,14.32,0,21.24-19.89,21.24-51.33,0-30.31-6.43-50.21-21.24-50.21C3741,901.13,3732,918.94,3732,952.47Z"/><path class="cls-17" d="M3864.05,904.36h-39.9l-4,31.63a50.36,50.36,0,0,1,8.52-.57c8.21,0,16.09,1.9,22.53,6.63,8.2,5.31,15,16.1,15,31.45,0,24.06-16.25,42-38.93,42-11.43,0-20.92-3.79-26.07-7.57l3.54-12.7a41.73,41.73,0,0,0,22.53,6.82c13.19,0,24.77-10.23,24.61-26.71,0-15.91-9.17-27.09-29.92-27.09a95.56,95.56,0,0,0-14.64,1.14l6.75-59.1h50Z"/></g><path class="cls-18" d="M3603.16,1294.92c57,0,103.17,44.39,103.17,99.14S3660.14,1629,3603.16,1629,3500,1448.81,3500,1394.06,3546.18,1294.92,3603.16,1294.92Z"/><ellipse class="cls-19" cx="3603.16" cy="1393.52" rx="85.67" ry="82.32"/></g><g id="taxi"><ellipse class="cls-20" cx="1666.06" cy="2598.64" rx="1314.59" ry="13.72"/><path class="cls-11" d="M1752.14,2435.22c0-90.21,63.32-163.38,141.48-163.38h-81.83c-78.16,0-141.49,73.17-141.49,163.38s63.33,163.42,141.49,163.42h81.83C1815.46,2598.64,1752.14,2525.48,1752.14,2435.22Z"/><path class="cls-21" d="M1890.45,2271.84c79.91,0,144.66,73.17,144.66,163.38s-64.75,163.42-144.66,163.42-144.67-73.16-144.67-163.42S1810.53,2271.84,1890.45,2271.84Z"/><path d="M1893.62,2271.84c78.16,0,141.49,73.17,141.49,163.38s-63.33,163.42-141.49,163.42-141.49-73.16-141.49-163.42S1815.46,2271.84,1893.62,2271.84Z"/><path class="cls-11" d="M510.47,2435.22c0-90.21,63.33-163.38,141.49-163.38H570.12c-78.16,0-141.49,73.17-141.49,163.38S492,2598.64,570.12,2598.64H652C573.8,2598.64,510.47,2525.48,510.47,2435.22Z"/><path class="cls-21" d="M648.78,2271.84c79.92,0,144.67,73.17,144.67,163.38s-64.75,163.42-144.67,163.42-144.67-73.16-144.67-163.42S568.86,2271.84,648.78,2271.84Z"/><path d="M652,2271.84c78.16,0,141.49,73.17,141.49,163.38S730.12,2598.64,652,2598.64s-141.49-73.16-141.49-163.42S573.8,2271.84,652,2271.84Z"/><path d="M2231.71,2171.9H530.54c-77.23,0-139.82,62.83-139.82,140.34v123c0,11.85,14.3,58.85,56,58.85H2680.27a169.81,169.81,0,0,0,58.27-10.3l77.87-31.64a114.35,114.35,0,0,0,71.19-106V2171.9Z"/><g class="cls-1"><path d="M1297.79,2598.64H1216c-78.16,0-141.49-73.16-141.49-163.42s63.33-163.38,141.49-163.38h81.84c-78.16,0-141.49,73.17-141.49,163.38S1219.63,2598.64,1297.79,2598.64Z"/><g class="cls-22"><g class="cls-1"><path d="M1156.3,2435.22a188.73,188.73,0,0,1,1.79-25.81h-81.84a190.33,190.33,0,0,0-1.79,25.81c0,90.26,63.33,163.42,141.49,163.42h81.84C1219.63,2598.64,1156.3,2525.48,1156.3,2435.22Z"/><path d="M1108.25,2329.27a170.35,170.35,0,0,0-24.71,48.24,182.81,182.81,0,0,0-7.29,31.9h81.84a182.81,182.81,0,0,1,7.29-31.9h0a170.32,170.32,0,0,1,24.7-48.24Z"/><path d="M1135.57,2300.77a151.9,151.9,0,0,0-27.32,28.5h81.83a152,152,0,0,1,27.33-28.5Z"/><path d="M1297.79,2271.84H1216c-29.86,0-57.55,10.7-80.38,28.93h81.84C1240.24,2282.54,1267.93,2271.84,1297.79,2271.84Z"/></g></g></g><path class="cls-21" d="M1294.61,2271.84c79.91,0,144.67,73.17,144.67,163.38s-64.76,163.42-144.67,163.42-144.67-73.16-144.67-163.42S1214.69,2271.84,1294.61,2271.84Z"/><path class="cls-9" d="M1297.79,2271.84c78.16,0,141.49,73.17,141.49,163.38s-63.33,163.42-141.49,163.42-141.49-73.16-141.49-163.42S1219.63,2271.84,1297.79,2271.84Z"/><path class="cls-11" d="M1297.79,2313.72c58.13,0,105.23,54.42,105.23,121.51s-47.1,121.54-105.23,121.54-105.23-54.42-105.23-121.54S1239.66,2313.72,1297.79,2313.72Z"/><g class="cls-16"><path d="M1297.79,2331.42c49.66,0,89.9,46.49,89.9,103.81s-40.24,103.84-89.9,103.84-89.9-46.49-89.9-103.84S1248.12,2331.42,1297.79,2331.42Z"/></g><path class="cls-19" d="M1297.78,2319.38c-55.46,0-100.39,51.92-100.39,115.94s44.93,116,100.39,116,100.41-51.92,100.41-116S1353.25,2319.38,1297.78,2319.38Zm15.43,127.56,72.81,22.6a111.72,111.72,0,0,1-19.92,38.72Zm54.13-83a112.63,112.63,0,0,1,19.33,39.16l-72.5,22.51Zm-49.26-33.56L1298.75,2414l-19.46-84.12a80.11,80.11,0,0,1,38.79.5Zm-89.85,176.25a112.47,112.47,0,0,1-19.32-39.15l72.49-22.5Zm-18.68-105.55a112,112,0,0,1,19.93-38.72l52.88,61.32Zm67.94,139.13,19.34-83.62,19.45,84.11a80.27,80.27,0,0,1-38.79-.49Z"/><path class="cls-23" d="M1297.79,2431.6c34.13,0,65.82,6.86,92,18.58a124.55,124.55,0,0,0,1-14.95c0-59.33-41.65-107.45-93-107.45s-93.06,48.12-93.06,107.45a122.51,122.51,0,0,0,1,14.95C1232,2438.46,1263.65,2431.6,1297.79,2431.6Z"/><path class="cls-8" d="M1297.89,2319.38c-55.4,0-100.3,51.89-100.3,115.88s44.9,115.9,100.3,115.9,100.3-51.9,100.3-115.9S1353.29,2319.38,1297.89,2319.38Zm0,223.63c-51.51,0-93.24-48.25-93.24-107.75s41.73-107.73,93.24-107.73,93.25,48.24,93.25,107.73S1349.4,2543,1297.89,2543Z"/><g class="cls-16"><path class="cls-21" d="M1284.69,2399.79c17,0,30.7,15.88,30.7,35.45s-13.74,66.85-30.7,66.85-30.7-47.27-30.7-66.85S1267.73,2399.79,1284.69,2399.79Z"/></g><path d="M1284.69,2399.79c17,0,30.7,15.88,30.7,35.45s-13.74,35.45-30.7,35.45-30.7-15.87-30.7-35.45S1267.73,2399.79,1284.69,2399.79Z"/><path class="cls-8" d="M1297.79,2399.79c17,0,30.69,15.88,30.69,35.45s-13.74,35.45-30.69,35.45-30.7-15.87-30.7-35.45S1280.83,2399.79,1297.79,2399.79Z"/><g class="cls-1"><path d="M2539.45,2598.64h-81.83c-78.16,0-141.49-73.16-141.49-163.42s63.33-163.38,141.49-163.38h81.83c-78.16,0-141.49,73.17-141.49,163.38S2461.29,2598.64,2539.45,2598.64Z"/><g class="cls-24"><g class="cls-1"><path d="M2398,2435.22a188.72,188.72,0,0,1,1.8-25.81h-81.84a188.73,188.73,0,0,0-1.79,25.81c0,90.26,63.33,163.42,141.49,163.42h81.83C2461.29,2598.64,2398,2525.48,2398,2435.22Z"/><path d="M2349.91,2329.27a170.32,170.32,0,0,0-24.7,48.24,182.81,182.81,0,0,0-7.29,31.9h81.84a181.9,181.9,0,0,1,7.28-31.9h0a170.35,170.35,0,0,1,24.71-48.24Z"/><path d="M2377.24,2300.77a152,152,0,0,0-27.33,28.5h81.84a151.63,151.63,0,0,1,27.33-28.5Z"/><path d="M2539.45,2271.84h-81.83c-29.87,0-57.55,10.7-80.38,28.93h81.84C2481.9,2282.54,2509.59,2271.84,2539.45,2271.84Z"/></g></g></g><path class="cls-21" d="M2536.27,2271.84c79.92,0,144.67,73.17,144.67,163.38s-64.75,163.42-144.67,163.42-144.67-73.16-144.67-163.42S2456.36,2271.84,2536.27,2271.84Z"/><path class="cls-9" d="M2539.45,2271.84c78.16,0,141.49,73.17,141.49,163.38s-63.33,163.42-141.49,163.42S2398,2525.48,2398,2435.22,2461.29,2271.84,2539.45,2271.84Z"/><path class="cls-11" d="M2539.45,2313.72c58.13,0,105.23,54.42,105.23,121.51s-47.1,121.54-105.23,121.54-105.23-54.42-105.23-121.54S2481.32,2313.72,2539.45,2313.72Z"/><g class="cls-16"><path d="M2539.45,2331.42c49.66,0,89.9,46.49,89.9,103.81s-40.24,103.84-89.9,103.84-89.9-46.49-89.9-103.84S2489.79,2331.42,2539.45,2331.42Z"/></g><path class="cls-19" d="M2539.45,2319.38c-55.46,0-100.4,51.92-100.4,115.94s44.94,116,100.4,116,100.4-51.92,100.4-116S2594.92,2319.38,2539.45,2319.38Zm15.43,127.56,72.81,22.6a111.91,111.91,0,0,1-19.93,38.72Zm54.13-83a112.43,112.43,0,0,1,19.32,39.16l-72.49,22.51Zm-49.26-33.56L2540.41,2414,2521,2329.92a80.11,80.11,0,0,1,38.79.5Zm-89.85,176.25a112.3,112.3,0,0,1-19.32-39.15l72.48-22.5Zm-18.68-105.55a111.81,111.81,0,0,1,19.92-38.72l52.88,61.32Zm67.94,139.13,19.33-83.62,19.46,84.11a80.27,80.27,0,0,1-38.79-.49Z"/><path class="cls-23" d="M2539.45,2431.6c34.14,0,65.82,6.86,92.05,18.58a122.51,122.51,0,0,0,1-14.95c0-59.33-41.65-107.45-93.06-107.45s-93,48.12-93,107.45a124.55,124.55,0,0,0,1,14.95C2473.63,2438.46,2505.32,2431.6,2539.45,2431.6Z"/><path class="cls-8" d="M2539.55,2319.38c-55.4,0-100.29,51.89-100.29,115.88s44.89,115.9,100.29,115.9,100.3-51.9,100.3-115.9S2595,2319.38,2539.55,2319.38Zm0,223.63c-51.5,0-93.24-48.25-93.24-107.75s41.74-107.73,93.24-107.73,93.25,48.24,93.25,107.73S2591.06,2543,2539.55,2543Z"/><g class="cls-16"><path class="cls-21" d="M2526.36,2399.79c16.95,0,30.69,15.88,30.69,35.45s-13.74,66.85-30.69,66.85-30.7-47.27-30.7-66.85S2509.4,2399.79,2526.36,2399.79Z"/></g><path d="M2526.36,2399.79c16.95,0,30.69,15.88,30.69,35.45s-13.74,35.45-30.69,35.45-30.7-15.87-30.7-35.45S2509.4,2399.79,2526.36,2399.79Z"/><path class="cls-8" d="M2539.45,2399.79c17,0,30.7,15.88,30.7,35.45s-13.74,35.45-30.7,35.45-30.69-15.87-30.69-35.45S2522.49,2399.79,2539.45,2399.79Z"/><path class="cls-25" d="M2063.18,1974.4c324.42-1.71,321-165.34,194.15-210.71,0,0-16.14-8.43-311.74-8.43-580.94,0-744.26,35.06-762.34,41.5C1010,1858.4,788,2013.14,788,2013.14s-348.81,59.57-404.66,241c-4.93,16-33.89,11.22-33.89,23.38-1.56,70.54,24.72,198.15,62.63,198.15,0,0,422.46.18,679.44,0-.68-9.78,42.12-179.26,42.12-189.2C1133.6,2137.84,2063.18,1974.4,2063.18,1974.4Z"/><path class="cls-26" d="M412,2475.65s422.45.18,679.44,0c-.31-4.54,8.74-43.52,18.54-85H362.79C373.9,2437.11,391.21,2475.65,412,2475.65Z"/><path class="cls-26" d="M2837.53,1974.4h-95c-165.56-90.94-270.1-153.33-397-198.7,0,0-36.32-13.33-148.79-13.33-199.06,0-323.28,14.87-337.65,18.41-176.76,43.62-391.81,232.36-391.81,232.36s-153.77,13.92-356.82,105.87c-72.72,32.93-99.38,81.25-130.75,135.11-8.44,14.49-33.89,11.22-33.89,23.38-1.57,70.54,18.59,198.15,30.26,198.15l149.72-.11c-.72-10.09-1.13-20.27-1.13-30.52,0-148.61,77.86-223.94,173.9-223.94s173.91,75.33,173.91,223.94c0,10.16-.4,20.26-1.11,30.26l896-.67c-.68-9.78-1.05-19.65-1.05-29.59,0-148.61,77.86-223.94,173.9-223.94s173.9,75.33,173.9,223.94c0,9.8-.36,19.55-1,29.2l182.54-40.65c33.51-6.5,61.38-30.34,71.9-62.82,11-33.94,14.53-74.57,15.14-114.78.32-21.54-7.11-37.57-15.39-48.68-13.09-17.58-22.85-39.07-22.85-62.32C2944.53,2037.57,2953.61,1974.4,2837.53,1974.4Z"/><path class="cls-25" d="M2956.07,2292.66H2763.55c-30.78,0-60.48-13.47-83.34-37.89-37.31-39.86-86.71-64.13-140.9-64.13s-103.59,24.27-140.89,64.13c-22.86,24.42-52.57,37.89-83.35,37.89h-794.3c-30.77,0-60.48-13.47-83.34-37.89-37.31-39.86-86.7-64.13-140.9-64.13s-103.58,24.27-140.89,64.13c-22.86,24.42-52.56,37.89-83.34,37.89H401.77c-47.61,0-33.16,137.66,50.87,137.66h619.61c10.2,0,13.72,6.5,13.72,9.79a295.08,295.08,0,0,0,2.29,35.45l37.61,0c-.72-10.09-1.13-20.27-1.13-30.52,0-148.61,77.86-223.94,173.9-223.94s173.9,75.33,173.9,223.94c0,10.16-.39,20.26-1.1,30.26l33.19,0c.78-22.35-2.44-90.62-2.44-90.62,0-18.91,297.61-34.39,313.57-34.39h194.69c16,0,323.47,15.48,323.47,34.39,0,0-6.1,50.77-2.92,90l36.46,0c-.68-9.78-1.05-19.65-1.05-29.59,0-148.61,77.86-223.94,173.9-223.94s173.9,75.33,173.9,223.94c0,9.8-.36,19.55-1,29.2l37-8.23c3.17-15.42,11-35.66,32.72-35.66,0,0,77-4.39,136.32-34.49,29.59-15,39.79-45.19,49.49-81.56C2971.56,2303.57,2965.55,2292.66,2956.07,2292.66Z"/><path class="cls-27" d="M2945.33,2074c-1.32-63.68,8.58-99.6-107.8-99.6h-58.48a118.11,118.11,0,0,1-65.29-19.8c-111.91-74.21-251.53-137.19-368.16-178.9,0,0-36.32-13.33-148.79-13.33-199.07,0-323.28,14.87-337.65,18.41-176.76,43.62-391.81,232.36-391.81,232.36s-153.77,13.92-356.82,105.87c-63.93,29-92.27,69.8-119.5,115.85C1256,2135,1935.19,2078.28,2945.33,2074Z"/><path class="cls-27" d="M401.36,2214.33a181.78,181.78,0,0,0-18.06,39.79c-4.22,13.72-26,12.2-32.2,19.1H806.25c203.64,0,292.89-24.54,322.14-58.89Z"/><path class="cls-27" d="M2967.39,2207.29c-13.1-17.58-22.86-39.07-22.86-62.32,0-25,1.09-47.56.85-67.52H2828.93c0,35.07,66.56,132.12,149.6,151A77.62,77.62,0,0,0,2967.39,2207.29Z"/><path class="cls-28" d="M2345.6,1775.7s-36.32-13.33-148.79-13.33c-199.07,0-323.28,14.87-337.65,18.41-176.76,43.62-391.81,232.36-391.81,232.36s-153.77,13.92-356.82,105.87c-23.5,10.64-42.16,22.91-57.76,36.43,341.41-152,1136.68-209,1618.88-227.46C2568.11,1865.36,2448,1812.32,2345.6,1775.7ZM788,2013.14s-217.73,37.21-336.68,142.3c0,0,413.84-26.4,593.07-145.9H793.19C789.88,2011.8,788,2013.14,788,2013.14Z"/><rect x="1549.98" y="2223.63" width="25.29" height="29.73"/><rect x="1600.57" y="2223.63" width="25.29" height="29.73"/><rect x="1651.15" y="2223.63" width="25.29" height="29.73"/><rect x="1701.74" y="2223.63" width="25.29" height="29.73"/><rect x="1752.32" y="2223.63" width="25.29" height="29.73"/><rect x="1524.69" y="2193.9" width="25.29" height="29.73"/><rect x="1575.28" y="2193.9" width="25.29" height="29.73"/><rect x="1625.86" y="2193.9" width="25.29" height="29.73"/><rect x="1676.45" y="2193.9" width="25.29" height="29.73"/><rect x="1727.03" y="2193.9" width="25.29" height="29.73"/><rect x="1777.61" y="2193.9" width="25.29" height="29.73"/><rect x="1802.91" y="2223.63" width="25.29" height="29.73"/><rect x="1853.49" y="2223.63" width="25.29" height="29.73"/><rect x="1904.08" y="2223.63" width="25.29" height="29.73"/><rect x="1954.66" y="2223.63" width="25.29" height="29.73"/><rect x="2005.24" y="2223.63" width="25.29" height="29.73"/><rect x="2055.83" y="2223.63" width="25.29" height="29.73"/><rect x="1828.2" y="2193.9" width="25.29" height="29.73"/><rect x="1878.78" y="2193.9" width="25.29" height="29.73"/><rect x="1929.37" y="2193.9" width="25.29" height="29.73"/><rect x="1979.95" y="2193.9" width="25.29" height="29.73"/><rect x="2030.54" y="2193.9" width="25.29" height="29.73"/><rect x="2081.12" y="2193.9" width="25.29" height="29.73"/><rect x="2106.41" y="2223.63" width="25.29" height="29.73"/><rect x="2157" y="2223.63" width="25.29" height="29.73"/><rect x="2207.58" y="2223.63" width="25.29" height="29.73"/><rect x="2258.17" y="2223.63" width="25.29" height="29.73"/><rect x="2308.75" y="2223.63" width="25.29" height="29.73"/><rect x="2359.33" y="2223.63" width="25.29" height="29.73"/><rect x="2131.71" y="2193.9" width="25.29" height="29.73"/><rect x="2182.29" y="2193.9" width="25.29" height="29.73"/><rect x="2232.87" y="2193.9" width="25.29" height="29.73"/><rect x="2283.46" y="2193.9" width="25.29" height="29.73"/><rect x="2334.04" y="2193.9" width="25.29" height="29.73"/><rect x="2384.63" y="2193.9" width="25.29" height="29.73"/><path d="M1140.34,2167h-173c-95.55,0-154.56,16.65-190.8,35.51a60.88,60.88,0,0,1-28.06,7.14H471.07a72,72,0,0,1-11.35-24.16c-2.58-10.05-10.79-17.49-21-18.33-25.56,25.26-45.35,54.12-55.47,87a12.15,12.15,0,0,1-.55,1.27H979.18c32.25,0,131.17-21.88,170.49-55C1162.19,2189.9,1155.8,2167,1140.34,2167Z"/><path class="cls-19" d="M831.36,2250.09H962.44c76.6,0,158-27.8,184.67-51.27,10.57-9.3,4.68-29.71-8.39-29.71h-146C850.57,2169.11,759.56,2250.09,831.36,2250.09Z"/><path class="cls-10" d="M940.22,2243.89c105.36,2.69,133.15-18.53,171-40.38,12.69-7.32,5.62-23.4-10.06-23.4h-32.63c-88.92,0-124.45,34.9-137,53.32C928.08,2238.45,933.05,2243.71,940.22,2243.89Z"/><path class="cls-8" d="M874.51,2228.31c42.37-2.83,127.39-16.24,163.58-35.38,12.14-6.42,5.38-20.51-9.62-20.51H997.25c-85.07,0-119.06,30.58-131.07,46.72C862.91,2223.54,867.67,2228.77,874.51,2228.31Z"/><path class="cls-29" d="M2823.88,2044.48c-5.75,0-9.19,7.46-6,13.06L2839,2095c17.28,30.71,46.64,49.21,78.12,49.21h27.82c6.79-14.7,7.44-31.7,7.44-49.89s-.65-35.18-7.44-49.88Z"/><path class="cls-18" d="M2861.69,2070.61c-3.83,0-6.13,5-4,8.7l14.06,25c11.52,20.47,31.09,32.8,52.07,32.8h0c12.61,0,23-11.64,23.42-26.35.06-2.27.08-4.57.08-6.9v-.36c0-18.21-12.82-32.88-28.42-32.88Z"/><path class="cls-30" d="M2860.35,2049c-2.77,0-4.43,3.59-2.91,6.29l10.17,18.07c8.33,14.79,22.47,23.7,37.64,23.7h0c9.11,0,16.66-8.41,16.93-19,0-1.63.06-3.3.06-5v-.26c0-13.16-9.27-23.77-20.54-23.77Z"/><path d="M2944.89,2146.46h-27.82c-32.22,0-62-18.77-79.71-50.2l-21.1-37.5a12,12,0,0,1-.41-10.9c1.62-3.5,4.62-5.59,8-5.59h121a2.24,2.24,0,0,1,0,4.43h-121a5.21,5.21,0,0,0-4.69,3.26,7,7,0,0,0,.24,6.37l21.1,37.5c17,30.18,45.61,48.2,76.54,48.2h27.82a2.24,2.24,0,0,1,0,4.43Z"/><path class="cls-19" d="M384.72,2250.05c3.42,0,7.74,0,13.5,0,45.67,0,71.73-16.28,59.69-65.31-2.28-9.25-11.67-14.76-21.21-15.52C413.22,2192.94,394.88,2219.77,384.72,2250.05Z"/><path class="cls-10" d="M407.5,2244.94h7.95c26.89,0,42.23-9,35.14-36-1.34-5.1-6.87-8.14-12.49-8.56C424.28,2213.44,413.48,2228.23,407.5,2244.94Z"/><path class="cls-8" d="M408.91,2211.24h7.45c25.19,0,39.56-7.6,32.92-30.52-1.25-4.32-6.43-6.89-11.7-7.25C424.63,2184.55,414.52,2197.09,408.91,2211.24Z"/><path d="M954.68,2445H394.54a13.06,13.06,0,0,1-11.9-7.61c-.25-.54-.49-1.08-.73-1.61-16.35-36.55,10.88-77.75,50.91-77.75H863.71a116.94,116.94,0,0,1,104.68,64.83h0A15.32,15.32,0,0,1,954.68,2445Z"/><path d="M1732,1806.48H1157.57c-167.23,66.13-366,204.14-369.42,206.53h607.58a82,82,0,0,0,52.1-18.65c45.9-37.67,156.44-123.67,270.18-177C1723.54,1814.72,1738.09,1806.48,1732,1806.48Z"/><path class="cls-9" d="M2313.59,1803.58c-2.28-.37-69.77-13-170.93-13-226.82,0-303.48,20.58-304.23,20.79-116.89,33.18-238.12,142.45-310.56,207.74-9.8,8.84-18.82,17-26.94,24.11-1.68,1.48-2,4-.84,6.79,1,2.5,3.38,5,6.31,5l1064.81-68.81C2547.66,1946.41,2413.88,1851.21,2313.59,1803.58Z"/><path class="cls-9" d="M819.17,1992.1h559.16a144.15,144.15,0,0,0,88-29.86c51.76-39.82,129.75-95.12,211.21-135.9H1111C995.1,1878.85,874.44,1955.52,819.17,1992.1Z"/><path class="cls-7" d="M990.12,1963.43c-15.21,7.14-27.43,17.08-35.84,28.67h424.05a144.61,144.61,0,0,0,21.45-1.67c9.9-48.94,23.07-98.54,40.58-146.34-105.46,4-150.86,11.57-164.73,14.45C1192.3,1875.85,1084.83,1919,990.12,1963.43Zm597.94-121.83c-27.81,0-53.29.22-76.71.61-14.22,36.3-25.67,74.18-34.94,112.29,44.65-33.81,105.63-76.59,170.78-112.27C1630,1841.84,1610.42,1841.6,1588.06,1841.6Zm174.07,9.64a110.72,110.72,0,0,0-11.84-2.27c-76.38,42.15-148.72,104.2-202,151.81L1798,1988.52a1019.53,1019.53,0,0,1,27.65-106.9A575.3,575.3,0,0,0,1762.13,1851.24Zm169.18,102.23c-25-21-59.16-45.39-97.24-67.12A1019.52,1019.52,0,0,0,1807.81,1988l108.1-5.31C1935,1981.79,1944.21,1964.32,1931.31,1953.47Z"/><path class="cls-7" d="M2018.85,1821.07a17.41,17.41,0,0,0-14.27,27.36l23.49,33.66a123.14,123.14,0,0,0,101,52.69h390.85c-45.18-36.92-111.39-81.19-171.92-113.71Z"/><path class="cls-31" d="M2108.54,1981.37h-7l2-18.48c15.81,0,29-10.52,27.9-22.19l-2.79-28.68c-1.92-19.61-22.94-34.09-49.51-34.09h-44.88c-26.57,0-50.74,14.48-56.92,34.09l-9,28.68c-3.67,11.67,7.27,22.19,23.09,22.19h8.37l-2,18.48h-15.39c-32.58,0-61.53,19-65.91,43.34l-.7,3.91,247.47-16C2157.05,1994.39,2135.47,1981.37,2108.54,1981.37Zm242.08,0c-22.51,0-43.28,9.09-55.42,22.73l216.55-14c-9.53-5.48-21.57-8.74-35-8.74h-7l2-18.48c15.81,0,29-10.52,27.9-22.19l-2.3-23.65c-16.87-12.79-35.57-26.06-55.16-39.12H2402.5c-26.57,0-50.74,14.48-56.91,34.09l-9,28.68c-3.68,11.67,7.27,22.19,23.08,22.19H2368l-2,18.48Z"/><path class="cls-17" d="M1589.24,1876.31c-8.9-10.25-23.57-16.75-40.6-16.75h-44.88c-26.57,0-50.74,15.72-56.91,37l-9,31.15c-3.67,12.67,7.27,24.11,23.09,24.11h8.37l-.88,8.78C1500.65,1935.89,1542.67,1905.48,1589.24,1876.31Zm357,95.59h-7l2-20.06c15.81,0,29-11.44,27.9-24.11l-2.79-31.15c-1.92-21.3-22.94-37-49.51-37H1872c-26.57,0-50.74,15.72-56.91,37l-9,31.15c-3.68,12.67,7.27,24.11,23.07,24.11h8.38l-2,20.06h-15.39c-32.58,0-61.53,20.67-65.91,47.07l-3.37,20.3L2002.65,2023l.14-4C2003.68,1992.57,1978.86,1971.9,1946.28,1971.9Zm-494.5,0c-18.91,0-36.55,7-48.9,18.07A143.89,143.89,0,0,0,1451.78,1971.9ZM1581,1972c-19.58,16.93-37.54,33.07-53.14,47.13-9.8,8.84-18.82,17-26.94,24.11-1.68,1.48-2,4-.84,6.79,1,2.5,3.38,5,6.31,5l127.2-8.22,1-27.88C1635.42,1993.39,1612.11,1973.24,1581,1972Z"/><path class="cls-32" d="M914.67,1966.37c-18.23,0-54.87,10.48-74.78,25.73h538.44a144.07,144.07,0,0,0,82.09-25.73Z"/><path class="cls-30" d="M1889,1908.71c.71-.2,73.63-20.79,289.36-20.79,96.22,0,160.41,12.6,162.58,13,46.14,23,99.72,57.22,145.3,90.87l85-5.49c-23.55-39.85-157.33-135-257.62-182.68-2.28-.37-69.77-13-170.93-13-226.82,0-303.48,20.58-304.23,20.79-116.89,33.18-238.12,142.45-310.56,207.74-9.8,8.84-18.82,17-26.94,24.11-1.68,1.48-2,4-.84,6.79,1,2.5,3.38,5,6.31,5l165.8-10.72C1735.76,1989.13,1813.32,1931.3,1889,1908.71Z"/><path class="cls-30" d="M1406.1,1895.59h153.25c36.52-24.21,76.88-48.6,118.14-69.25H1111c-115.85,52.51-236.51,129.18-291.78,165.76H988.55A953.55,953.55,0,0,1,1406.1,1895.59Z"/><path d="M2576.79,1987.29c-18.58-38.55-157.78-138.55-261.3-187.72a2.19,2.19,0,0,0-.53-.17c-.68-.13-69.44-13.21-172.3-13.21-228.93,0-304.68,20.74-305.42,21-117.89,33.47-239.61,143.17-312.33,208.72-9.8,8.83-18.8,16.94-26.9,24.08-3.13,2.74-3.9,7.27-2,11.81,1.62,3.93,5.44,7.75,10.4,7.75l.63,0,1067.91-69a2.21,2.21,0,0,0,1.85-3.17Zm-928-54c59.38-46.31,127.27-90.37,193.15-109.07.58-.16,46.89-12.32,172.13-17.75,6.38,63.61,8.73,133,8.57,201.92l-423.73,27.39A129.89,129.89,0,0,1,1648.8,1933.3Zm436,71.08c0-67.74-2.39-136.14-8.59-199.82,20.55-.41,42.6-.65,66.41-.65,92.53,0,156.23,10.61,167,12.53,18,8.63,36.91,18.71,55.86,29.6,6.58,45,10.77,92.1,13.18,139.34Zm431.32-27.88-128.6,8.31c-2.3-45-6.24-89.91-12.28-133.08,56.32,33.15,112.27,72.76,148.09,103.44C2531.62,1962.25,2527,1975.8,2516.16,1976.5Z"/><path class="cls-33" d="M1706.67,2102.72c0-10-8.6-25.11-19.19-33.76l-26.1-21.28c-15-12.26-29.15-20.19-41.48-23.92-21.5-6.52-37.44-.17-43.17,18.22l-22.82-18.62c-2.06-1.67-3.72-1.46-3.72.48v13.88c0,1.93,1.66,4.85,3.72,6.53l97.25,79.32c1.52,1.24,2.82,1.43,3.4.67l11.11,9.06c22.65,18.47,41,16.12,41-5.24v-19.91h0Z"/><path class="cls-25" d="M1646,1956.8h43.86a16.8,16.8,0,0,1,16.8,16.8V2003a35.89,35.89,0,0,1-35.89,35.89h-101a0,0,0,0,1,0,0V2033A76.19,76.19,0,0,1,1646,1956.8Z"/><path class="cls-28" d="M1658.32,1980.34h48.35v-5.43c0-10-7-18.11-15.59-18.11H1640.5c-39,0-70.68,36.77-70.68,82.12h7.8C1592.26,2004.26,1622.85,1980.34,1658.32,1980.34Z"/><path d="M1553.44,2020.15h65.64a16.12,16.12,0,0,1,16.12,16.12v1.51A3.25,3.25,0,0,1,1632,2041h-78.52a3.25,3.25,0,0,1-3.25-3.25V2023.4A3.25,3.25,0,0,1,1553.44,2020.15Z"/><ellipse class="cls-33" cx="1989.65" cy="2096.87" rx="33.07" ry="23.14"/><g class="cls-16"><rect class="cls-21" x="1943.9" y="2083.83" width="83.21" height="26.1" rx="13.05"/></g><rect x="1952.07" y="2083.83" width="83.21" height="26.1" rx="13.05"/><ellipse class="cls-33" cx="2487.68" cy="2079.82" rx="33.07" ry="23.14"/><g class="cls-16"><path class="cls-21" d="M2512.09,2092.87H2455a13,13,0,0,1-13.05-13h0a13,13,0,0,1,13.05-13.05h57.11a13,13,0,0,1,13,13.05h0A13,13,0,0,1,2512.09,2092.87Z"/></g><path d="M2520.26,2092.87h-57.11a13,13,0,0,1-13.05-13h0a13,13,0,0,1,13.05-13.05h57.11a13,13,0,0,1,13,13.05h0A13,13,0,0,1,2520.26,2092.87Z"/><path d="M2026.71,2452.39h-.27a2.22,2.22,0,0,1-1.93-2.47c.47-3.86,46.87-388.78,16.87-659.82a2.22,2.22,0,0,1,4.41-.49c30.05,271.56-16.41,657-16.89,660.85A2.2,2.2,0,0,1,2026.71,2452.39Z"/><path d="M2260.12,2453.16H1561c-10.62,0-19.9-8.21-21.57-19.09-44-286.15,10.34-439.16,10.89-440.67a2.29,2.29,0,0,1,.61-.89c79.84-71.13,184.53-156.48,286.32-185.37.74-.21,76.49-21,305.42-21,102.86,0,171.62,13.08,172.31,13.21a2.43,2.43,0,0,1,.52.17c103.52,49.17,242.72,149.17,261.3,187.72a2.21,2.21,0,0,1,.19,1.34L2562.6,2071c-6.41,36.7-42.58,65.79-57.83,76.59-134.88,94.26-157.1,164.44-174.95,220.84-6,19-11.68,36.89-20.93,53.79C2298.27,2441.57,2280,2453.16,2260.12,2453.16Zm-705.83-457.73c-3.42,9.94-53,161.35-10.49,438,1.34,8.74,8.74,15.33,17.19,15.33h699.13c18.28,0,35.06-10.73,44.88-28.68,9.05-16.52,14.66-34.24,20.59-53,18.06-57,40.53-128,176.63-223.12,14.79-10.48,49.89-38.65,56-73.73l14.26-81.62c-17.65-34.47-150.16-133.3-258.64-184.88-4.81-.9-72.06-13.08-171.19-13.08-228.32,0-303.48,20.58-304.21,20.79C1737.71,1840,1633.72,1924.7,1554.29,1995.43Z"/><path class="cls-25" d="M1894.55,1769.68h-273.1l12.93-104.3a17.34,17.34,0,0,1,17.21-15.21h212.82a17.34,17.34,0,0,1,17.21,15.21Z"/><path class="cls-34" d="M1894.55,1769.68l-12.93-104.3a17.37,17.37,0,0,0-1.86-5.92h-17.33a17.33,17.33,0,0,0-17.2,15.21l9.77,95Z"/><path d="M1616.54,1747.66h282.91a8.71,8.71,0,0,1,8.71,8.71v13.31a0,0,0,0,1,0,0H1607.83a0,0,0,0,1,0,0v-13.31A8.71,8.71,0,0,1,1616.54,1747.66Z"/><path d="M1645.62,1687.94l0-8h41.71l0,8H1671l.14,44.86h-9.31l-.14-44.86Z"/><path d="M1727.89,1679.92l20.66,52.88H1738L1732.7,1718h-20.15c-.5,1.26-1,2.51-1.4,3.73s-.88,2.46-1.3,3.67-.85,2.44-1.27,3.68-.86,2.49-1.3,3.76h-9.76l20.18-52.88Zm1.69,29.91-7-19.41-6.79,19.41Z"/><path d="M1759.62,1679.92h11.26l11.64,18.54,12.09-18.54h10.6l-17.3,25.68,18.47,27.2H1795l-12.56-19.39-13,19.39h-10.74l18-27.3Z"/><path d="M1830.55,1679.92l.09,52.88h-9.32l-.07-52.88Z"/></g></g></g></svg>